<?xml version="1.0" encoding="UTF-8" standalone="no"?>
<svg width="20" height="20" viewBox="0 0 20 20" fill="none" version="1.1" id="svg6" sodipodi:docname="forever (4).svg" inkscape:version="1.1.2 (0a00cf5339, 2022-02-04)" xmlns:inkscape="http://www.inkscape.org/namespaces/inkscape" xmlns:sodipodi="http://sodipodi.sourceforge.net/DTD/sodipodi-0.dtd" xmlns="http://www.w3.org/2000/svg" xmlns:svg="http://www.w3.org/2000/svg">
  <defs id="defs10"/>
  <sodipodi:namedview id="namedview8" pagecolor="#ffffff" bordercolor="#666666" borderopacity="1.0" inkscape:pageshadow="2" inkscape:pageopacity="0.0" inkscape:pagecheckerboard="0" showgrid="false" inkscape:zoom="42.95" inkscape:cx="10" inkscape:cy="9.9883586" inkscape:window-width="1920" inkscape:window-height="1011" inkscape:window-x="0" inkscape:window-y="503" inkscape:window-maximized="1" inkscape:current-layer="svg6"/>
  <circle cx="10" cy="10" r="9.5" stroke="#354D55" id="circle2" style="fill:#ffffff;fill-opacity:1"/>
  <path d="M7.73744 8.76254L8.95257 9.97764L8.95618 9.97402L9.80348 10.8213L9.80709 10.8249L11.0446 12.0624C12.1836 13.2014 14.0303 13.2014 15.1693 12.0624C16.3084 10.9233 16.3084 9.07662 15.1693 7.93759C14.0303 6.79855 12.1836 6.79855 11.0446 7.93759L10.6284 8.35373L11.4534 9.17871L11.8695 8.76254C12.5529 8.07913 13.6609 8.07913 14.3444 8.76254C15.0278 9.44599 15.0278 10.554 14.3444 11.2374C13.6609 11.9208 12.5529 11.9208 11.8695 11.2374L10.6607 10.0286L10.657 10.0323L8.56239 7.93759C7.42337 6.79855 5.57664 6.79855 4.43761 7.93759C3.29858 9.07662 3.29858 10.9233 4.43761 12.0624C5.57664 13.2014 7.42337 13.2014 8.56239 12.0624L8.97847 11.6463L8.15354 10.8213L7.73744 11.2374C7.05402 11.9208 5.94598 11.9208 5.26257 11.2374C4.57915 10.554 4.57915 9.44599 5.26257 8.76254C5.94598 8.07913 7.05402 8.07913 7.73744 8.76254Z" fill="#354D55" id="path4"/>
</svg>