<?xml version="1.0" encoding="UTF-8" standalone="no"?>
<svg width="20" height="20" viewBox="0 0 20 20" fill="none" version="1.1" id="svg6" sodipodi:docname="runtime (3).svg" inkscape:version="1.1.2 (0a00cf5339, 2022-02-04)" xmlns:inkscape="http://www.inkscape.org/namespaces/inkscape" xmlns:sodipodi="http://sodipodi.sourceforge.net/DTD/sodipodi-0.dtd" xmlns="http://www.w3.org/2000/svg" xmlns:svg="http://www.w3.org/2000/svg">
  <defs id="defs10"/>
  <sodipodi:namedview id="namedview8" pagecolor="#ffffff" bordercolor="#666666" borderopacity="1.0" inkscape:pageshadow="2" inkscape:pageopacity="0.0" inkscape:pagecheckerboard="0" showgrid="false" inkscape:zoom="42.95" inkscape:cx="10" inkscape:cy="9.9883586" inkscape:window-width="1920" inkscape:window-height="1011" inkscape:window-x="0" inkscape:window-y="503" inkscape:window-maximized="1" inkscape:current-layer="svg6"/>
  <circle cx="10" cy="10" r="9.5" stroke="#354D55" id="circle2" style="fill:#ffffff;fill-opacity:1"/>
  <path d="M7.02615 11.3792C7.0437 11.4179 7.06914 11.45 7.09989 11.4724C7.13063 11.4948 7.16558 11.5065 7.20117 11.5066H9.83644L9.39463 15.721C9.38989 15.7774 9.40049 15.8342 9.42473 15.8822C9.44896 15.9301 9.48543 15.9665 9.52824 15.9855C9.57106 16.0044 9.61773 16.0048 9.66076 15.9866C9.70378 15.9685 9.74065 15.9327 9.76543 15.8852L12.9702 8.87543C12.9889 8.83738 12.9992 8.79377 13 8.74911C13.0007 8.70445 12.9919 8.66035 12.9744 8.62135C12.957 8.58236 12.9315 8.54988 12.9006 8.52728C12.8698 8.50467 12.8346 8.49275 12.7989 8.49274H10.203L10.5531 4.27191C10.5565 4.2157 10.5448 4.15967 10.5198 4.11273C10.4948 4.06579 10.4579 4.03064 10.4151 4.01287C10.3722 3.99511 10.3259 3.99575 10.2833 4.01468C10.2408 4.03362 10.2046 4.06977 10.1804 4.11739L7.02857 11.1264C7.01029 11.1645 7.00044 11.208 7.00001 11.2524C6.99959 11.2968 7.00861 11.3406 7.02615 11.3792Z" fill="#354D55" id="path4"/>
</svg>