<svg width="20" height="20" viewBox="0 0 20 20" fill="none" xmlns="http://www.w3.org/2000/svg">
<circle cx="10" cy="10" r="9.5" stroke="#354D55" style="fill:#ffffff;fill-opacity:1"/>
<path d="M8.62955 9.63855C8.03029 10.3287 8.05976 11.3995 8.69341 12.0602C9.04707 12.431 9.52108 12.6152 9.99263 12.6152C10.4544 12.6152 10.9136 12.4384 11.2648 12.0872C11.4245 11.9275 11.5497 11.7433 11.6357 11.5493L13.9566 7.04993C14.018 6.92222 13.8854 6.7896 13.7577 6.851L9.25829 9.17191C9.02497 9.27506 8.8113 9.43225 8.62955 9.63855ZM9.44986 10.2722C9.59967 10.1224 9.79615 10.0462 9.99263 10.0462C10.1891 10.0462 10.3856 10.1224 10.5379 10.2722C10.8375 10.5718 10.8375 11.0606 10.5379 11.3602C10.388 11.51 10.1916 11.5862 9.99263 11.5862C9.79615 11.5862 9.59967 11.51 9.44986 11.3602C9.14777 11.0581 9.14777 10.5718 9.44986 10.2722ZM14.8113 11.3848C14.8113 10.535 14.5878 9.69995 14.1629 8.97052C13.9984 8.68563 14.0941 8.32214 14.379 8.15759C14.6639 7.99303 15.0274 8.08882 15.192 8.37371C15.72 9.28489 16 10.3262 16 11.3848C16 11.7139 15.7348 11.9791 15.4056 11.9791C15.079 11.9791 14.8113 11.7139 14.8113 11.3848ZM4 11.3848C4 8.07654 6.69177 5.38477 10 5.38477C10.7687 5.38477 11.5178 5.52721 12.2251 5.81211C12.5297 5.93491 12.677 6.27875 12.5567 6.58329C12.4339 6.88784 12.0901 7.0352 11.7855 6.91485C11.2182 6.6889 10.6165 6.57347 10 6.57347C7.34752 6.57347 5.1887 8.73229 5.1887 11.3848C5.1887 11.7139 4.92345 11.9791 4.59435 11.9791C4.26525 11.9791 4 11.7139 4 11.3848Z" fill="#354D55"/>
</svg>
