<?xml version="1.0" encoding="UTF-8" standalone="no"?>
<!-- Created with Inkscape (http://www.inkscape.org/) -->

<svg
   width="30.786163mm"
   height="24.78299mm"
   viewBox="0 0 30.786163 24.78299"
   version="1.1"
   id="svg5"
   inkscape:version="1.2.1 (9c6d41e410, 2022-07-14)"
   sodipodi:docname="svg_masks_for_homepage_story.svg"
   xml:space="preserve"
   xmlns:inkscape="http://www.inkscape.org/namespaces/inkscape"
   xmlns:sodipodi="http://sodipodi.sourceforge.net/DTD/sodipodi-0.dtd"
   xmlns="http://www.w3.org/2000/svg"
   xmlns:svg="http://www.w3.org/2000/svg"><sodipodi:namedview
     id="namedview7"
     pagecolor="#ffffff"
     bordercolor="#666666"
     borderopacity="1.0"
     inkscape:showpageshadow="2"
     inkscape:pageopacity="0.0"
     inkscape:pagecheckerboard="0"
     inkscape:deskcolor="#d1d1d1"
     inkscape:document-units="mm"
     showgrid="true"
     inkscape:zoom="2.9897026"
     inkscape:cx="709.60235"
     inkscape:cy="949.2583"
     inkscape:window-width="1920"
     inkscape:window-height="1011"
     inkscape:window-x="0"
     inkscape:window-y="32"
     inkscape:window-maximized="1"
     inkscape:current-layer="layer1"><inkscape:grid
       type="xygrid"
       id="grid132" /></sodipodi:namedview><defs
     id="defs2" /><g
     inkscape:label="Layer 1"
     inkscape:groupmode="layer"
     id="layer1"
     transform="translate(-153.54616,-252.76492)"><path
       d="m 171.97917,277.54792 c -0.86254,0 -1.63777,-0.52917 -1.95792,-1.32292 l -0.80169,-2.01877 a 0.26458333,0.26458333 0 0 1 0.32809,-0.34925 l 0.20902,0.0688 c 0.14816,0.0503 0.26987,0.16139 0.32808,0.30691 l 0.37306,0.93398 h 0.19844 v -3.10885 a 0.33073,0.33073 0 0 1 0.66146,0 v 2.3151 h 0.26458 v -2.84427 a 0.33073,0.33073 0 0 1 0.66146,0 v 2.84427 h 0.26458 v -2.4474 a 0.33073,0.33073 0 0 1 0.66146,0 v 2.4474 h 0.26459 v -1.65364 a 0.33072917,0.33072917 0 0 1 0.66145,0 v 2.71197 c 0,1.16946 -0.9472,2.11667 -2.11666,2.11667 z"
       fill="#9b9999"
       id="path339"
       style="stroke-width:0.264583"
       inkscape:export-filename="docs/docs/assets/all_hands.png"
       inkscape:export-xdpi="400.313"
       inkscape:export-ydpi="400.313" /><path
       d="m 165.36458,277.54792 c 0.86254,0 1.63777,-0.52917 1.95792,-1.32292 l 0.80169,-2.01877 a 0.26458333,0.26458333 0 0 0 -0.32809,-0.34925 l -0.20902,0.0688 c -0.14816,0.0503 -0.26987,0.16139 -0.32808,0.30691 l -0.37306,0.93398 h -0.19844 v -3.10885 a 0.33073,0.33073 0 0 0 -0.66146,0 v 2.3151 h -0.26458 v -2.84427 a 0.33073,0.33073 0 0 0 -0.66146,0 v 2.84427 h -0.26458 v -2.4474 a 0.33073,0.33073 0 0 0 -0.66146,0 v 2.4474 h -0.26459 v -1.65364 a 0.33072917,0.33072917 0 0 0 -0.66145,0 v 2.71197 c 0,1.16946 0.9472,2.11667 2.11666,2.11667 z"
       id="path339-3"
       fill="#9b9999"
       style="stroke-width:0.264583" /><path
       d="m 154.16632,258.0623 c 0.60991,-0.60991 1.53226,-0.7839 2.3199,-0.44902 l 1.99437,0.86061 a 0.26458333,0.26458333 0 0 1 0.015,0.47895 l -0.19645,0.0992 c -0.14033,0.0692 -0.30494,0.0767 -0.449,0.015 l -0.92422,-0.39663 -0.14032,0.14032 2.19829,2.19829 a 0.33073,0.33073 0 0 1 -0.46772,0.46772 l -1.63702,-1.63702 -0.18709,0.18708 2.0112,2.01121 a 0.33073,0.33073 0 0 1 -0.46772,0.46772 l -2.0112,-2.0112 -0.18709,0.18708 1.73057,1.73058 a 0.33073,0.33073 0 0 1 -0.46772,0.46772 l -1.73057,-1.73057 -0.18709,0.18709 1.1693,1.1693 a 0.33072917,0.33072917 0 0 1 -0.46772,0.46772 l -1.91765,-1.91766 c -0.82694,-0.82693 -0.82694,-2.16648 -1e-5,-2.99341 z"
       fill="#9b9999"
       id="path339-6"
       style="stroke-width:0.264583" /><path
       d="m 158.84354,253.38508 c -0.60991,0.6099 -0.7839,1.53225 -0.44901,2.3199 l 0.8606,1.99437 a 0.26458333,0.26458333 0 0 0 0.47896,0.015 l 0.0991,-0.19645 c 0.0692,-0.14033 0.0767,-0.30495 0.015,-0.44901 l -0.39663,-0.92421 0.14031,-0.14032 2.19829,2.19829 a 0.33073152,0.33073152 0 0 0 0.46773,-0.46772 l -1.63703,-1.63703 0.18709,-0.18708 2.0112,2.0112 a 0.33073,0.33073 0 0 0 0.46772,-0.46772 l -2.0112,-2.01121 0.18709,-0.18708 1.73057,1.73057 a 0.33073,0.33073 0 0 0 0.46772,-0.46772 l -1.73057,-1.73058 0.18709,-0.18709 1.1693,1.1693 a 0.33072917,0.33072917 0 0 0 0.46772,-0.46772 l -1.91765,-1.91765 c -0.82694,-0.82693 -2.16649,-0.82694 -2.99342,0 z"
       id="path339-3-7"
       fill="#9b9999"
       style="stroke-width:0.264583" /><path
       d="m 179.03496,253.91972 c 0.60991,0.6099 0.7839,1.53225 0.44901,2.3199 l -0.8606,1.99437 a 0.26458333,0.26458333 0 0 1 -0.47896,0.015 l -0.0992,-0.19645 c -0.0692,-0.14033 -0.0767,-0.30495 -0.015,-0.44901 l 0.39663,-0.92421 -0.14031,-0.14032 -2.19829,2.19829 a 0.33073152,0.33073152 0 0 1 -0.46773,-0.46772 l 1.63703,-1.63703 -0.18709,-0.18708 -2.0112,2.0112 a 0.33073,0.33073 0 0 1 -0.46772,-0.46772 l 2.0112,-2.01121 -0.18709,-0.18708 -1.73057,1.73057 a 0.33073,0.33073 0 0 1 -0.46772,-0.46772 l 1.73057,-1.73058 -0.18709,-0.18709 -1.1693,1.1693 a 0.33072917,0.33072917 0 0 1 -0.46772,-0.46772 l 1.91765,-1.91765 c 0.82694,-0.82693 2.16649,-0.82694 2.99342,0 z"
       id="path339-5"
       fill="#9b9999"
       style="stroke-width:0.264583" /><path
       d="m 183.71218,258.59694 c -0.60991,-0.60991 -1.53226,-0.7839 -2.3199,-0.44902 l -1.99437,0.86061 a 0.26458333,0.26458333 0 0 0 -0.015,0.47895 l 0.19645,0.0992 c 0.14033,0.0692 0.30494,0.0767 0.449,0.015 l 0.92422,-0.39663 0.14032,0.14032 -2.19829,2.19829 a 0.33073,0.33073 0 0 0 0.46772,0.46772 l 1.63702,-1.63702 0.18709,0.18708 -2.0112,2.01121 a 0.33073,0.33073 0 0 0 0.46772,0.46772 l 2.0112,-2.0112 0.18709,0.18708 -1.73057,1.73058 a 0.33073,0.33073 0 0 0 0.46772,0.46772 l 1.73057,-1.73057 0.18709,0.18709 -1.1693,1.1693 a 0.33072917,0.33072917 0 0 0 0.46772,0.46772 l 1.91765,-1.91766 c 0.82694,-0.82693 0.82694,-2.16648 1e-5,-2.99341 z"
       id="path339-3-3"
       fill="#9b9999"
       style="stroke-width:0.264583" /></g></svg>
