<?xml version="1.0" encoding="UTF-8" standalone="no"?>
<svg
   width="1104.5865pt"
   height="585.25342pt"
   viewBox="0 0 1104.5865 585.25342"
   version="1.1"
   id="svg335"
   sodipodi:docname="Histogram_stream.svg"
   inkscape:version="1.1.1 (3bf5ae0d25, 2021-09-20)"
   xmlns:inkscape="http://www.inkscape.org/namespaces/inkscape"
   xmlns:sodipodi="http://sodipodi.sourceforge.net/DTD/sodipodi-0.dtd"
   xmlns:xlink="http://www.w3.org/1999/xlink"
   xmlns="http://www.w3.org/2000/svg"
   xmlns:svg="http://www.w3.org/2000/svg"
   xmlns:rdf="http://www.w3.org/1999/02/22-rdf-syntax-ns#"
   xmlns:cc="http://creativecommons.org/ns#"
   xmlns:dc="http://purl.org/dc/elements/1.1/">
  <sodipodi:namedview
     id="namedview337"
     pagecolor="#ffffff"
     bordercolor="#666666"
     borderopacity="1.0"
     inkscape:pageshadow="2"
     inkscape:pageopacity="0.0"
     inkscape:pagecheckerboard="0"
     inkscape:document-units="pt"
     showgrid="false"
     inkscape:zoom="0.8034188"
     inkscape:cx="734.98404"
     inkscape:cy="375.89362"
     inkscape:window-width="3360"
     inkscape:window-height="1780"
     inkscape:window-x="3348"
     inkscape:window-y="-12"
     inkscape:window-maximized="1"
     inkscape:current-layer="svg335" />
  <metadata
     id="metadata2">
    <rdf:RDF>
      <cc:Work>
        <dc:type
           rdf:resource="http://purl.org/dc/dcmitype/StillImage" />
        <dc:date>2022-08-25T12:50:56.964720</dc:date>
        <dc:format>image/svg+xml</dc:format>
        <dc:creator>
          <cc:Agent>
            <dc:title>Matplotlib v3.5.1, https://matplotlib.org/</dc:title>
          </cc:Agent>
        </dc:creator>
      </cc:Work>
    </rdf:RDF>
  </metadata>
  <defs
     id="defs6">
    <style
       type="text/css"
       id="style4">*{stroke-linejoin: round; stroke-linecap: butt}</style>
  </defs>
  <g
     id="axes_1"
     transform="translate(-139.97343,-69.121875)">
    <g
       id="patch_2">
      <path
         d="M 172.8,624.78 H 1244.16 V 84.24 H 172.8 Z"
         style="fill:#ffffff"
         id="path11" />
    </g>
    <g
       id="matplotlib.axis_1">
      <g
         id="xtick_1">
        <g
           id="line2d_1">
          <defs
             id="defs15">
            <path
               id="md48c94918c"
               d="M 0,0 V 3.5"
               style="stroke:#000000;stroke-width:0.8" />
          </defs>
          <g
             id="g19">
            <use
               xlink:href="#md48c94918c"
               x="219.05104"
               y="624.78003"
               style="stroke:#000000;stroke-width:0.8"
               id="use17"
               width="100%"
               height="100%" />
          </g>
        </g>
        <g
           id="text_1">
          <!-- 0 -->
          <g
             transform="matrix(0.1,0,0,-0.1,215.86979,639.37844)"
             id="g27">
            <defs
               id="defs23">
              <path
                 id="DejaVuSans-30"
                 d="m 2034,4250 q -487,0 -733,-480 -245,-479 -245,-1442 0,-959 245,-1439 246,-480 733,-480 491,0 736,480 246,480 246,1439 0,963 -246,1442 -245,480 -736,480 z m 0,500 q 785,0 1199,-621 414,-620 414,-1801 0,-1178 -414,-1799 -414,-620 -1199,-620 -784,0 -1198,620 -414,621 -414,1799 0,1181 414,1801 414,621 1198,621 z"
                 transform="scale(0.015625)" />
            </defs>
            <use
               xlink:href="#DejaVuSans-30"
               id="use25"
               x="0"
               y="0"
               width="100%"
               height="100%" />
          </g>
        </g>
      </g>
      <g
         id="xtick_2">
        <g
           id="line2d_2">
          <g
             id="g33">
            <use
               xlink:href="#md48c94918c"
               x="341.40826"
               y="624.78003"
               style="stroke:#000000;stroke-width:0.8"
               id="use31"
               width="100%"
               height="100%" />
          </g>
        </g>
        <g
           id="text_2">
          <!-- 500 -->
          <g
             transform="matrix(0.1,0,0,-0.1,331.86453,639.37844)"
             id="g45">
            <defs
               id="defs37">
              <path
                 id="DejaVuSans-35"
                 d="M 691,4666 H 3169 V 4134 H 1269 V 2991 q 137,47 274,70 138,23 276,23 781,0 1237,-428 457,-428 457,-1159 Q 3513,744 3044,326 2575,-91 1722,-91 1428,-91 1123,-41 819,9 494,109 v 635 q 281,-153 581,-228 300,-75 634,-75 541,0 856,284 316,284 316,772 0,487 -316,771 -315,285 -856,285 -253,0 -505,-56 -251,-56 -513,-175 z"
                 transform="scale(0.015625)" />
            </defs>
            <use
               xlink:href="#DejaVuSans-35"
               id="use39"
               x="0"
               y="0"
               width="100%"
               height="100%" />
            <use
               xlink:href="#DejaVuSans-30"
               x="63.623047"
               id="use41"
               y="0"
               width="100%"
               height="100%" />
            <use
               xlink:href="#DejaVuSans-30"
               x="127.24609"
               id="use43"
               y="0"
               width="100%"
               height="100%" />
          </g>
        </g>
      </g>
      <g
         id="xtick_3">
        <g
           id="line2d_3">
          <g
             id="g51">
            <use
               xlink:href="#md48c94918c"
               x="463.76553"
               y="624.78003"
               style="stroke:#000000;stroke-width:0.8"
               id="use49"
               width="100%"
               height="100%" />
          </g>
        </g>
        <g
           id="text_3">
          <!-- 1000 -->
          <g
             transform="matrix(0.1,0,0,-0.1,451.04052,639.37844)"
             id="g65">
            <defs
               id="defs55">
              <path
                 id="DejaVuSans-31"
                 d="M 794,531 H 1825 V 4091 L 703,3866 v 575 l 1116,225 h 631 V 531 H 3481 V 0 H 794 Z"
                 transform="scale(0.015625)" />
            </defs>
            <use
               xlink:href="#DejaVuSans-31"
               id="use57"
               x="0"
               y="0"
               width="100%"
               height="100%" />
            <use
               xlink:href="#DejaVuSans-30"
               x="63.623047"
               id="use59"
               y="0"
               width="100%"
               height="100%" />
            <use
               xlink:href="#DejaVuSans-30"
               x="127.24609"
               id="use61"
               y="0"
               width="100%"
               height="100%" />
            <use
               xlink:href="#DejaVuSans-30"
               x="190.86914"
               id="use63"
               y="0"
               width="100%"
               height="100%" />
          </g>
        </g>
      </g>
      <g
         id="xtick_4">
        <g
           id="line2d_4">
          <g
             id="g71">
            <use
               xlink:href="#md48c94918c"
               x="586.12274"
               y="624.78003"
               style="stroke:#000000;stroke-width:0.8"
               id="use69"
               width="100%"
               height="100%" />
          </g>
        </g>
        <g
           id="text_4">
          <!-- 1500 -->
          <g
             transform="matrix(0.1,0,0,-0.1,573.39776,639.37844)"
             id="g82">
            <use
               xlink:href="#DejaVuSans-31"
               id="use74"
               x="0"
               y="0"
               width="100%"
               height="100%" />
            <use
               xlink:href="#DejaVuSans-35"
               x="63.623047"
               id="use76"
               y="0"
               width="100%"
               height="100%" />
            <use
               xlink:href="#DejaVuSans-30"
               x="127.24609"
               id="use78"
               y="0"
               width="100%"
               height="100%" />
            <use
               xlink:href="#DejaVuSans-30"
               x="190.86914"
               id="use80"
               y="0"
               width="100%"
               height="100%" />
          </g>
        </g>
      </g>
      <g
         id="xtick_5">
        <g
           id="line2d_5">
          <g
             id="g88">
            <use
               xlink:href="#md48c94918c"
               x="708.47998"
               y="624.78003"
               style="stroke:#000000;stroke-width:0.8"
               id="use86"
               width="100%"
               height="100%" />
          </g>
        </g>
        <g
           id="text_5">
          <!-- 2000 -->
          <g
             transform="matrix(0.1,0,0,-0.1,695.755,639.37844)"
             id="g102">
            <defs
               id="defs92">
              <path
                 id="DejaVuSans-32"
                 d="M 1228,531 H 3431 V 0 H 469 v 531 q 359,372 979,998 621,627 780,809 303,340 423,576 121,236 121,464 0,372 -261,606 -261,235 -680,235 -297,0 -627,-103 -329,-103 -704,-313 v 638 q 381,153 712,231 332,78 607,78 725,0 1156,-363 431,-362 431,-968 0,-288 -108,-546 -107,-257 -392,-607 -78,-91 -497,-524 Q 1991,1309 1228,531 Z"
                 transform="scale(0.015625)" />
            </defs>
            <use
               xlink:href="#DejaVuSans-32"
               id="use94"
               x="0"
               y="0"
               width="100%"
               height="100%" />
            <use
               xlink:href="#DejaVuSans-30"
               x="63.623047"
               id="use96"
               y="0"
               width="100%"
               height="100%" />
            <use
               xlink:href="#DejaVuSans-30"
               x="127.24609"
               id="use98"
               y="0"
               width="100%"
               height="100%" />
            <use
               xlink:href="#DejaVuSans-30"
               x="190.86914"
               id="use100"
               y="0"
               width="100%"
               height="100%" />
          </g>
        </g>
      </g>
      <g
         id="xtick_6">
        <g
           id="line2d_6">
          <g
             id="g108">
            <use
               xlink:href="#md48c94918c"
               x="830.83722"
               y="624.78003"
               style="stroke:#000000;stroke-width:0.8"
               id="use106"
               width="100%"
               height="100%" />
          </g>
        </g>
        <g
           id="text_6">
          <!-- 2500 -->
          <g
             transform="matrix(0.1,0,0,-0.1,818.11224,639.37844)"
             id="g119">
            <use
               xlink:href="#DejaVuSans-32"
               id="use111"
               x="0"
               y="0"
               width="100%"
               height="100%" />
            <use
               xlink:href="#DejaVuSans-35"
               x="63.623047"
               id="use113"
               y="0"
               width="100%"
               height="100%" />
            <use
               xlink:href="#DejaVuSans-30"
               x="127.24609"
               id="use115"
               y="0"
               width="100%"
               height="100%" />
            <use
               xlink:href="#DejaVuSans-30"
               x="190.86914"
               id="use117"
               y="0"
               width="100%"
               height="100%" />
          </g>
        </g>
      </g>
      <g
         id="xtick_7">
        <g
           id="line2d_7">
          <g
             id="g125">
            <use
               xlink:href="#md48c94918c"
               x="953.19446"
               y="624.78003"
               style="stroke:#000000;stroke-width:0.8"
               id="use123"
               width="100%"
               height="100%" />
          </g>
        </g>
        <g
           id="text_7">
          <!-- 3000 -->
          <g
             transform="matrix(0.1,0,0,-0.1,940.46948,639.37844)"
             id="g139">
            <defs
               id="defs129">
              <path
                 id="DejaVuSans-33"
                 d="m 2597,2516 q 453,-97 707,-404 255,-306 255,-756 0,-690 -475,-1069 -475,-378 -1350,-378 -293,0 -604,58 -311,58 -642,174 v 609 q 262,-153 574,-231 313,-78 654,-78 593,0 904,234 311,234 311,681 0,413 -289,645 -289,233 -804,233 h -544 v 519 h 569 q 465,0 712,186 247,186 247,536 0,359 -255,551 -254,193 -729,193 -260,0 -557,-57 -297,-56 -653,-174 v 562 q 360,100 674,150 314,50 592,50 719,0 1137,-327 419,-326 419,-882 0,-388 -222,-655 -222,-267 -631,-370 z"
                 transform="scale(0.015625)" />
            </defs>
            <use
               xlink:href="#DejaVuSans-33"
               id="use131"
               x="0"
               y="0"
               width="100%"
               height="100%" />
            <use
               xlink:href="#DejaVuSans-30"
               x="63.623047"
               id="use133"
               y="0"
               width="100%"
               height="100%" />
            <use
               xlink:href="#DejaVuSans-30"
               x="127.24609"
               id="use135"
               y="0"
               width="100%"
               height="100%" />
            <use
               xlink:href="#DejaVuSans-30"
               x="190.86914"
               id="use137"
               y="0"
               width="100%"
               height="100%" />
          </g>
        </g>
      </g>
      <g
         id="xtick_8">
        <g
           id="line2d_8">
          <g
             id="g145">
            <use
               xlink:href="#md48c94918c"
               x="1075.5518"
               y="624.78003"
               style="stroke:#000000;stroke-width:0.8"
               id="use143"
               width="100%"
               height="100%" />
          </g>
        </g>
        <g
           id="text_8">
          <!-- 3500 -->
          <g
             transform="matrix(0.1,0,0,-0.1,1062.8267,639.37844)"
             id="g156">
            <use
               xlink:href="#DejaVuSans-33"
               id="use148"
               x="0"
               y="0"
               width="100%"
               height="100%" />
            <use
               xlink:href="#DejaVuSans-35"
               x="63.623047"
               id="use150"
               y="0"
               width="100%"
               height="100%" />
            <use
               xlink:href="#DejaVuSans-30"
               x="127.24609"
               id="use152"
               y="0"
               width="100%"
               height="100%" />
            <use
               xlink:href="#DejaVuSans-30"
               x="190.86914"
               id="use154"
               y="0"
               width="100%"
               height="100%" />
          </g>
        </g>
      </g>
      <g
         id="xtick_9">
        <g
           id="line2d_9">
          <g
             id="g162">
            <use
               xlink:href="#md48c94918c"
               x="1197.9089"
               y="624.78003"
               style="stroke:#000000;stroke-width:0.8"
               id="use160"
               width="100%"
               height="100%" />
          </g>
        </g>
        <g
           id="text_9">
          <!-- 4000 -->
          <g
             transform="matrix(0.1,0,0,-0.1,1185.184,639.37844)"
             id="g176">
            <defs
               id="defs166">
              <path
                 id="DejaVuSans-34"
                 d="M 2419,4116 825,1625 h 1594 z m -166,550 h 794 V 1625 h 666 V 1100 H 3047 V 0 H 2419 V 1100 H 313 v 609 z"
                 transform="scale(0.015625)" />
            </defs>
            <use
               xlink:href="#DejaVuSans-34"
               id="use168"
               x="0"
               y="0"
               width="100%"
               height="100%" />
            <use
               xlink:href="#DejaVuSans-30"
               x="63.623047"
               id="use170"
               y="0"
               width="100%"
               height="100%" />
            <use
               xlink:href="#DejaVuSans-30"
               x="127.24609"
               id="use172"
               y="0"
               width="100%"
               height="100%" />
            <use
               xlink:href="#DejaVuSans-30"
               x="190.86914"
               id="use174"
               y="0"
               width="100%"
               height="100%" />
          </g>
        </g>
      </g>
      <g
         id="text_10">
        <!-- t [ns] -->
        <g
           transform="matrix(0.1,0,0,-0.1,695.25578,653.05656)"
           id="g200">
          <defs
             id="defs186">
            <path
               id="DejaVuSans-74"
               d="M 1172,4494 V 3500 H 2356 V 3053 H 1172 V 1153 q 0,-428 117,-550 117,-122 477,-122 h 590 V 0 H 1766 Q 1100,0 847,248 594,497 594,1153 V 3053 H 172 v 447 h 422 v 994 z"
               transform="scale(0.015625)" />
            <path
               id="DejaVuSans-20"
               transform="scale(0.015625)"
               d="" />
            <path
               id="DejaVuSans-5b"
               d="M 550,4863 H 1875 V 4416 H 1125 V -397 h 750 V -844 H 550 Z"
               transform="scale(0.015625)" />
            <path
               id="DejaVuSans-6e"
               d="M 3513,2113 V 0 h -575 v 2094 q 0,497 -194,743 -194,247 -581,247 -466,0 -735,-297 -269,-296 -269,-809 V 0 H 581 v 3500 h 578 v -544 q 207,316 486,472 280,156 646,156 603,0 912,-373 310,-373 310,-1098 z"
               transform="scale(0.015625)" />
            <path
               id="DejaVuSans-73"
               d="m 2834,3397 v -544 q -243,125 -506,187 -262,63 -544,63 -428,0 -642,-131 -214,-131 -214,-394 0,-200 153,-314 153,-114 616,-217 l 197,-44 q 612,-131 870,-370 258,-239 258,-667 0,-488 -386,-773 Q 2250,-91 1575,-91 1294,-91 989,-36 684,19 347,128 v 594 q 319,-166 628,-249 309,-82 613,-82 406,0 624,139 219,139 219,392 0,234 -158,359 -157,125 -692,241 l -200,47 q -534,112 -772,345 -237,233 -237,639 0,494 350,762 350,269 994,269 318,0 599,-47 282,-46 519,-140 z"
               transform="scale(0.015625)" />
            <path
               id="DejaVuSans-5d"
               d="M 1947,4863 V -844 H 622 v 447 h 747 V 4416 H 622 v 447 z"
               transform="scale(0.015625)" />
          </defs>
          <use
             xlink:href="#DejaVuSans-74"
             id="use188"
             x="0"
             y="0"
             width="100%"
             height="100%" />
          <use
             xlink:href="#DejaVuSans-20"
             x="39.208984"
             id="use190"
             y="0"
             width="100%"
             height="100%" />
          <use
             xlink:href="#DejaVuSans-5b"
             x="70.996094"
             id="use192"
             y="0"
             width="100%"
             height="100%" />
          <use
             xlink:href="#DejaVuSans-6e"
             x="110.00977"
             id="use194"
             y="0"
             width="100%"
             height="100%" />
          <use
             xlink:href="#DejaVuSans-73"
             x="173.38867"
             id="use196"
             y="0"
             width="100%"
             height="100%" />
          <use
             xlink:href="#DejaVuSans-5d"
             x="225.48828"
             id="use198"
             y="0"
             width="100%"
             height="100%" />
        </g>
      </g>
    </g>
    <g
       id="matplotlib.axis_2">
      <g
         id="ytick_1">
        <g
           id="line2d_10">
          <defs
             id="defs205">
            <path
               id="m1c497fea4a"
               d="M 0,0 H -3.5"
               style="stroke:#000000;stroke-width:0.8" />
          </defs>
          <g
             id="g209">
            <use
               xlink:href="#m1c497fea4a"
               x="172.8"
               y="600.21002"
               style="stroke:#000000;stroke-width:0.8"
               id="use207"
               width="100%"
               height="100%" />
          </g>
        </g>
        <g
           id="text_11">
          <!-- 0 -->
          <g
             transform="matrix(0.1,0,0,-0.1,159.4375,604.00922)"
             id="g214">
            <use
               xlink:href="#DejaVuSans-30"
               id="use212"
               x="0"
               y="0"
               width="100%"
               height="100%" />
          </g>
        </g>
      </g>
      <g
         id="ytick_2">
        <g
           id="line2d_11">
          <g
             id="g220">
            <use
               xlink:href="#m1c497fea4a"
               x="172.8"
               y="493.38391"
               style="stroke:#000000;stroke-width:0.8"
               id="use218"
               width="100%"
               height="100%" />
          </g>
        </g>
        <g
           id="text_12">
          <!-- 10 -->
          <g
             transform="matrix(0.1,0,0,-0.1,153.075,497.18313)"
             id="g227">
            <use
               xlink:href="#DejaVuSans-31"
               id="use223"
               x="0"
               y="0"
               width="100%"
               height="100%" />
            <use
               xlink:href="#DejaVuSans-30"
               x="63.623047"
               id="use225"
               y="0"
               width="100%"
               height="100%" />
          </g>
        </g>
      </g>
      <g
         id="ytick_3">
        <g
           id="line2d_12">
          <g
             id="g233">
            <use
               xlink:href="#m1c497fea4a"
               x="172.8"
               y="386.55783"
               style="stroke:#000000;stroke-width:0.8"
               id="use231"
               width="100%"
               height="100%" />
          </g>
        </g>
        <g
           id="text_13">
          <!-- 20 -->
          <g
             transform="matrix(0.1,0,0,-0.1,153.075,390.35705)"
             id="g240">
            <use
               xlink:href="#DejaVuSans-32"
               id="use236"
               x="0"
               y="0"
               width="100%"
               height="100%" />
            <use
               xlink:href="#DejaVuSans-30"
               x="63.623047"
               id="use238"
               y="0"
               width="100%"
               height="100%" />
          </g>
        </g>
      </g>
      <g
         id="ytick_4">
        <g
           id="line2d_13">
          <g
             id="g246">
            <use
               xlink:href="#m1c497fea4a"
               x="172.8"
               y="279.73175"
               style="stroke:#000000;stroke-width:0.8"
               id="use244"
               width="100%"
               height="100%" />
          </g>
        </g>
        <g
           id="text_14">
          <!-- 30 -->
          <g
             transform="matrix(0.1,0,0,-0.1,153.075,283.53096)"
             id="g253">
            <use
               xlink:href="#DejaVuSans-33"
               id="use249"
               x="0"
               y="0"
               width="100%"
               height="100%" />
            <use
               xlink:href="#DejaVuSans-30"
               x="63.623047"
               id="use251"
               y="0"
               width="100%"
               height="100%" />
          </g>
        </g>
      </g>
      <g
         id="ytick_5">
        <g
           id="line2d_14">
          <g
             id="g259">
            <use
               xlink:href="#m1c497fea4a"
               x="172.8"
               y="172.90565"
               style="stroke:#000000;stroke-width:0.8"
               id="use257"
               width="100%"
               height="100%" />
          </g>
        </g>
        <g
           id="text_15">
          <!-- 40 -->
          <g
             transform="matrix(0.1,0,0,-0.1,153.075,176.70487)"
             id="g266">
            <use
               xlink:href="#DejaVuSans-34"
               id="use262"
               x="0"
               y="0"
               width="100%"
               height="100%" />
            <use
               xlink:href="#DejaVuSans-30"
               x="63.623047"
               id="use264"
               y="0"
               width="100%"
               height="100%" />
          </g>
        </g>
      </g>
      <g
         id="text_16">
        <!-- counts -->
        <g
           transform="matrix(0,-0.1,-0.1,0,146.99531,371.22094)"
           id="g287">
          <defs
             id="defs273">
            <path
               id="DejaVuSans-63"
               d="m 3122,3366 v -538 q -244,135 -489,202 -245,67 -495,67 -560,0 -870,-355 -309,-354 -309,-995 0,-641 309,-996 310,-354 870,-354 250,0 495,67 245,67 489,202 V 134 Q 2881,22 2623,-34 2366,-91 2075,-91 1284,-91 818,406 353,903 353,1747 q 0,856 470,1346 471,491 1290,491 265,0 518,-55 253,-54 491,-163 z"
               transform="scale(0.015625)" />
            <path
               id="DejaVuSans-6f"
               d="m 1959,3097 q -462,0 -731,-361 -269,-361 -269,-989 0,-628 267,-989 268,-361 733,-361 460,0 728,362 269,363 269,988 0,622 -269,986 -268,364 -728,364 z m 0,487 q 750,0 1178,-488 429,-487 429,-1349 Q 3566,888 3137,398 2709,-91 1959,-91 1206,-91 779,398 353,888 353,1747 q 0,862 426,1349 427,488 1180,488 z"
               transform="scale(0.015625)" />
            <path
               id="DejaVuSans-75"
               d="m 544,1381 v 2119 h 575 V 1403 q 0,-497 193,-746 194,-248 582,-248 465,0 735,297 271,297 271,810 v 1984 h 575 V 0 H 2900 V 538 Q 2691,219 2414,64 2138,-91 1772,-91 1169,-91 856,284 544,659 544,1381 Z m 1447,2203 z"
               transform="scale(0.015625)" />
          </defs>
          <use
             xlink:href="#DejaVuSans-63"
             id="use275"
             x="0"
             y="0"
             width="100%"
             height="100%" />
          <use
             xlink:href="#DejaVuSans-6f"
             x="54.980469"
             id="use277"
             y="0"
             width="100%"
             height="100%" />
          <use
             xlink:href="#DejaVuSans-75"
             x="116.16211"
             id="use279"
             y="0"
             width="100%"
             height="100%" />
          <use
             xlink:href="#DejaVuSans-6e"
             x="179.54102"
             id="use281"
             y="0"
             width="100%"
             height="100%" />
          <use
             xlink:href="#DejaVuSans-74"
             x="242.91992"
             id="use283"
             y="0"
             width="100%"
             height="100%" />
          <use
             xlink:href="#DejaVuSans-73"
             x="282.12891"
             id="use285"
             y="0"
             width="100%"
             height="100%" />
        </g>
      </g>
    </g>
    <g
       id="line2d_15">
      <path
         d="m 221.49818,600.21 h 19.57716 l 4.89429,-491.4 4.89429,491.4 h 68.52005 l 4.89429,-405.93913 4.89429,405.93913 h 73.41435 l 4.89429,-373.8913 4.89429,373.8913 h 68.52005 l 4.89429,-299.11304 4.89429,299.11304 h 68.52006 l 4.89429,-309.79565 4.89429,309.79565 h 68.52005 l 4.89429,-267.06522 4.89429,267.06522 h 68.52005 l 4.89429,-245.7 4.89429,245.7 h 73.41435 l 4.89429,-192.28696 4.89429,192.28696 h 68.52005 l 4.89429,-138.87391 4.89429,138.87391 h 68.52006 l 4.89429,-96.14348 4.89429,96.14348 h 230.03159 v 0"
         clip-path="url(#p61e5b15730)"
         style="fill:none;stroke:#1f77b4;stroke-width:1.5;stroke-linecap:square"
         id="path291" />
    </g>
    <g
       id="patch_3">
      <path
         d="M 172.8,624.78 V 84.24"
         style="fill:none;stroke:#000000;stroke-width:0.8;stroke-linecap:square;stroke-linejoin:miter"
         id="path294" />
    </g>
    <g
       id="patch_4">
      <path
         d="M 1244.16,624.78 V 84.24"
         style="fill:none;stroke:#000000;stroke-width:0.8;stroke-linecap:square;stroke-linejoin:miter"
         id="path297" />
    </g>
    <g
       id="patch_5">
      <path
         d="M 172.8,624.78 H 1244.16"
         style="fill:none;stroke:#000000;stroke-width:0.8;stroke-linecap:square;stroke-linejoin:miter"
         id="path300" />
    </g>
    <g
       id="patch_6">
      <path
         d="M 172.8,84.24 H 1244.16"
         style="fill:none;stroke:#000000;stroke-width:0.8;stroke-linecap:square;stroke-linejoin:miter"
         id="path303" />
    </g>
    <g
       id="text_17">
      <!-- Delays -->
      <g
         transform="matrix(0.12,0,0,-0.12,688.1475,78.24)"
         id="g325">
        <defs
           id="defs311">
          <path
             id="DejaVuSans-44"
             d="M 1259,4147 V 519 h 763 q 966,0 1414,437 448,438 448,1382 0,937 -448,1373 -448,436 -1414,436 z m -631,519 h 1297 q 1356,0 1990,-564 635,-564 635,-1764 Q 4550,1131 3912,565 3275,0 1925,0 H 628 Z"
             transform="scale(0.015625)" />
          <path
             id="DejaVuSans-65"
             d="M 3597,1894 V 1613 H 953 q 38,-594 358,-905 320,-311 892,-311 331,0 642,81 311,81 618,244 V 178 Q 3153,47 2828,-22 2503,-91 2169,-91 1331,-91 842,396 353,884 353,1716 q 0,859 464,1363 464,505 1252,505 706,0 1117,-455 411,-454 411,-1235 z m -575,169 q -6,471 -264,752 -258,282 -683,282 -481,0 -770,-272 -289,-272 -333,-766 z"
             transform="scale(0.015625)" />
          <path
             id="DejaVuSans-6c"
             d="m 603,4863 h 575 V 0 H 603 Z"
             transform="scale(0.015625)" />
          <path
             id="DejaVuSans-61"
             d="m 2194,1759 q -697,0 -966,-159 -269,-159 -269,-544 0,-306 202,-486 202,-179 548,-179 479,0 768,339 289,339 289,901 v 128 z m 1147,238 V 0 H 2766 V 531 Q 2569,213 2275,61 1981,-91 1556,-91 q -537,0 -855,302 -317,302 -317,808 0,590 395,890 396,300 1180,300 h 807 v 57 q 0,397 -261,614 -261,217 -733,217 -300,0 -585,-72 -284,-72 -546,-216 v 532 q 315,122 612,182 297,61 578,61 760,0 1135,-394 375,-393 375,-1193 z"
             transform="scale(0.015625)" />
          <path
             id="DejaVuSans-79"
             d="m 2059,-325 q -243,-625 -475,-815 -231,-191 -618,-191 H 506 v 481 h 338 q 237,0 368,113 132,112 291,531 L 1606,56 191,3500 H 800 L 1894,763 2988,3500 h 609 z"
             transform="scale(0.015625)" />
        </defs>
        <use
           xlink:href="#DejaVuSans-44"
           id="use313"
           x="0"
           y="0"
           width="100%"
           height="100%" />
        <use
           xlink:href="#DejaVuSans-65"
           x="77.001953"
           id="use315"
           y="0"
           width="100%"
           height="100%" />
        <use
           xlink:href="#DejaVuSans-6c"
           x="138.52539"
           id="use317"
           y="0"
           width="100%"
           height="100%" />
        <use
           xlink:href="#DejaVuSans-61"
           x="166.30859"
           id="use319"
           y="0"
           width="100%"
           height="100%" />
        <use
           xlink:href="#DejaVuSans-79"
           x="227.58789"
           id="use321"
           y="0"
           width="100%"
           height="100%" />
        <use
           xlink:href="#DejaVuSans-73"
           x="286.76758"
           id="use323"
           y="0"
           width="100%"
           height="100%" />
      </g>
    </g>
  </g>
  <defs
     id="defs333">
    <clipPath
       id="p61e5b15730">
      <rect
         x="172.8"
         y="84.239998"
         width="1071.36"
         height="540.53998"
         id="rect330" />
    </clipPath>
  </defs>
</svg>
