<?xml version="1.0" encoding="UTF-8" standalone="no"?>
<svg
   width="1122.9069pt"
   height="570.53534pt"
   viewBox="0 0 1122.9068 570.53534"
   version="1.1"
   id="svg454"
   sodipodi:docname="reset_phase_frame.svg"
   inkscape:version="1.1.1 (3bf5ae0d25, 2021-09-20)"
   xmlns:inkscape="http://www.inkscape.org/namespaces/inkscape"
   xmlns:sodipodi="http://sodipodi.sourceforge.net/DTD/sodipodi-0.dtd"
   xmlns:xlink="http://www.w3.org/1999/xlink"
   xmlns="http://www.w3.org/2000/svg"
   xmlns:svg="http://www.w3.org/2000/svg"
   xmlns:rdf="http://www.w3.org/1999/02/22-rdf-syntax-ns#"
   xmlns:cc="http://creativecommons.org/ns#"
   xmlns:dc="http://purl.org/dc/elements/1.1/">
  <sodipodi:namedview
     id="namedview456"
     pagecolor="#ffffff"
     bordercolor="#666666"
     borderopacity="1.0"
     inkscape:pageshadow="2"
     inkscape:pageopacity="0.0"
     inkscape:pagecheckerboard="0"
     inkscape:document-units="pt"
     showgrid="false"
     inkscape:zoom="1.1362058"
     inkscape:cx="451.06266"
     inkscape:cy="421.57857"
     inkscape:window-width="3360"
     inkscape:window-height="1780"
     inkscape:window-x="3348"
     inkscape:window-y="-12"
     inkscape:window-maximized="1"
     inkscape:current-layer="svg454" />
  <metadata
     id="metadata2">
    <rdf:RDF>
      <cc:Work>
        <dc:type
           rdf:resource="http://purl.org/dc/dcmitype/StillImage" />
        <dc:date>2022-09-19T11:33:15.034616</dc:date>
        <dc:format>image/svg+xml</dc:format>
        <dc:creator>
          <cc:Agent>
            <dc:title>Matplotlib v3.5.1, https://matplotlib.org/</dc:title>
          </cc:Agent>
        </dc:creator>
      </cc:Work>
    </rdf:RDF>
  </metadata>
  <defs
     id="defs6">
    <style
       type="text/css"
       id="style4">*{stroke-linejoin: round; stroke-linecap: butt}</style>
  </defs>
  <defs
     id="defs452">
    <clipPath
       id="p4e8f467822">
      <rect
         x="172.8"
         y="84.239998"
         width="1071.36"
         height="540.53998"
         id="rect449" />
    </clipPath>
  </defs>
  <g
     id="g2779"
     transform="translate(-117.15312,-83.84)">
    <g
       id="patch_2"
       transform="translate(-4.5)">
      <path
         d="M 172.8,624.78 H 1244.16 V 84.24 H 172.8 Z"
         style="fill:#ffffff"
         id="path11" />
    </g>
    <g
       id="matplotlib.axis_1"
       transform="translate(-4.5)">
      <g
         id="xtick_1">
        <g
           id="line2d_1">
          <defs
             id="defs15">
            <path
               id="ma66466f690"
               d="M 0,0 V 3.5"
               style="stroke:#000000;stroke-width:0.8" />
          </defs>
          <g
             id="g19">
            <use
               xlink:href="#ma66466f690"
               x="269.76108"
               y="624.78003"
               style="stroke:#000000;stroke-width:0.8"
               id="use17"
               width="100%"
               height="100%" />
          </g>
        </g>
        <g
           id="text_1">
          <!-- 600 -->
          <g
             transform="matrix(0.1,0,0,-0.1,260.21732,639.37844)"
             id="g32">
            <defs
               id="defs24">
              <path
                 id="DejaVuSans-36"
                 d="m 2113,2584 q -425,0 -674,-291 -248,-290 -248,-796 0,-503 248,-796 249,-292 674,-292 425,0 673,292 248,293 248,796 0,506 -248,796 -248,291 -673,291 z m 1253,1979 v -575 q -238,112 -480,171 -242,60 -480,60 -625,0 -955,-422 -329,-422 -376,-1275 184,272 462,417 279,145 613,145 703,0 1111,-427 408,-426 408,-1160 0,-719 -425,-1154 -425,-434 -1131,-434 -810,0 -1238,620 -428,621 -428,1799 0,1106 525,1764 525,658 1409,658 238,0 480,-47 242,-47 505,-140 z"
                 transform="scale(0.015625)" />
              <path
                 id="DejaVuSans-30"
                 d="m 2034,4250 q -487,0 -733,-480 -245,-479 -245,-1442 0,-959 245,-1439 246,-480 733,-480 491,0 736,480 246,480 246,1439 0,963 -246,1442 -245,480 -736,480 z m 0,500 q 785,0 1199,-621 414,-620 414,-1801 0,-1178 -414,-1799 -414,-620 -1199,-620 -784,0 -1198,620 -414,621 -414,1799 0,1181 414,1801 414,621 1198,621 z"
                 transform="scale(0.015625)" />
            </defs>
            <use
               xlink:href="#DejaVuSans-36"
               id="use26"
               x="0"
               y="0"
               width="100%"
               height="100%" />
            <use
               xlink:href="#DejaVuSans-30"
               x="63.623047"
               id="use28"
               y="0"
               width="100%"
               height="100%" />
            <use
               xlink:href="#DejaVuSans-30"
               x="127.24609"
               id="use30"
               y="0"
               width="100%"
               height="100%" />
          </g>
        </g>
      </g>
      <g
         id="xtick_2">
        <g
           id="line2d_2">
          <g
             id="g38">
            <use
               xlink:href="#ma66466f690"
               x="410.46136"
               y="624.78003"
               style="stroke:#000000;stroke-width:0.8"
               id="use36"
               width="100%"
               height="100%" />
          </g>
        </g>
        <g
           id="text_2">
          <!-- 800 -->
          <g
             transform="matrix(0.1,0,0,-0.1,400.9176,639.37844)"
             id="g50">
            <defs
               id="defs42">
              <path
                 id="DejaVuSans-38"
                 d="m 2034,2216 q -450,0 -708,-241 -257,-241 -257,-662 0,-422 257,-663 258,-241 708,-241 450,0 709,242 260,243 260,662 0,421 -258,662 -257,241 -711,241 z m -631,268 q -406,100 -633,378 -226,279 -226,679 0,559 398,884 399,325 1092,325 697,0 1094,-325 397,-325 397,-884 0,-400 -227,-679 -226,-278 -629,-378 456,-106 710,-416 255,-309 255,-755 Q 3634,634 3220,271 2806,-91 2034,-91 1263,-91 848,271 434,634 434,1313 q 0,446 256,755 257,310 713,416 z m -231,997 q 0,-362 226,-565 227,-203 636,-203 407,0 636,203 230,203 230,565 0,363 -230,566 -229,203 -636,203 -409,0 -636,-203 -226,-203 -226,-566 z"
                 transform="scale(0.015625)" />
            </defs>
            <use
               xlink:href="#DejaVuSans-38"
               id="use44"
               x="0"
               y="0"
               width="100%"
               height="100%" />
            <use
               xlink:href="#DejaVuSans-30"
               x="63.623047"
               id="use46"
               y="0"
               width="100%"
               height="100%" />
            <use
               xlink:href="#DejaVuSans-30"
               x="127.24609"
               id="use48"
               y="0"
               width="100%"
               height="100%" />
          </g>
        </g>
      </g>
      <g
         id="xtick_3">
        <g
           id="line2d_3">
          <g
             id="g56">
            <use
               xlink:href="#ma66466f690"
               x="551.16162"
               y="624.78003"
               style="stroke:#000000;stroke-width:0.8"
               id="use54"
               width="100%"
               height="100%" />
          </g>
        </g>
        <g
           id="text_3">
          <!-- 1000 -->
          <g
             transform="matrix(0.1,0,0,-0.1,538.43663,639.37844)"
             id="g70">
            <defs
               id="defs60">
              <path
                 id="DejaVuSans-31"
                 d="M 794,531 H 1825 V 4091 L 703,3866 v 575 l 1116,225 h 631 V 531 H 3481 V 0 H 794 Z"
                 transform="scale(0.015625)" />
            </defs>
            <use
               xlink:href="#DejaVuSans-31"
               id="use62"
               x="0"
               y="0"
               width="100%"
               height="100%" />
            <use
               xlink:href="#DejaVuSans-30"
               x="63.623047"
               id="use64"
               y="0"
               width="100%"
               height="100%" />
            <use
               xlink:href="#DejaVuSans-30"
               x="127.24609"
               id="use66"
               y="0"
               width="100%"
               height="100%" />
            <use
               xlink:href="#DejaVuSans-30"
               x="190.86914"
               id="use68"
               y="0"
               width="100%"
               height="100%" />
          </g>
        </g>
      </g>
      <g
         id="xtick_4">
        <g
           id="line2d_4">
          <g
             id="g76">
            <use
               xlink:href="#ma66466f690"
               x="691.86188"
               y="624.78003"
               style="stroke:#000000;stroke-width:0.8"
               id="use74"
               width="100%"
               height="100%" />
          </g>
        </g>
        <g
           id="text_4">
          <!-- 1200 -->
          <g
             transform="matrix(0.1,0,0,-0.1,679.13691,639.37844)"
             id="g90">
            <defs
               id="defs80">
              <path
                 id="DejaVuSans-32"
                 d="M 1228,531 H 3431 V 0 H 469 v 531 q 359,372 979,998 621,627 780,809 303,340 423,576 121,236 121,464 0,372 -261,606 -261,235 -680,235 -297,0 -627,-103 -329,-103 -704,-313 v 638 q 381,153 712,231 332,78 607,78 725,0 1156,-363 431,-362 431,-968 0,-288 -108,-546 -107,-257 -392,-607 -78,-91 -497,-524 Q 1991,1309 1228,531 Z"
                 transform="scale(0.015625)" />
            </defs>
            <use
               xlink:href="#DejaVuSans-31"
               id="use82"
               x="0"
               y="0"
               width="100%"
               height="100%" />
            <use
               xlink:href="#DejaVuSans-32"
               x="63.623047"
               id="use84"
               y="0"
               width="100%"
               height="100%" />
            <use
               xlink:href="#DejaVuSans-30"
               x="127.24609"
               id="use86"
               y="0"
               width="100%"
               height="100%" />
            <use
               xlink:href="#DejaVuSans-30"
               x="190.86914"
               id="use88"
               y="0"
               width="100%"
               height="100%" />
          </g>
        </g>
      </g>
      <g
         id="xtick_5">
        <g
           id="line2d_5">
          <g
             id="g96">
            <use
               xlink:href="#ma66466f690"
               x="832.56219"
               y="624.78003"
               style="stroke:#000000;stroke-width:0.8"
               id="use94"
               width="100%"
               height="100%" />
          </g>
        </g>
        <g
           id="text_5">
          <!-- 1400 -->
          <g
             transform="matrix(0.1,0,0,-0.1,819.83718,639.37844)"
             id="g110">
            <defs
               id="defs100">
              <path
                 id="DejaVuSans-34"
                 d="M 2419,4116 825,1625 h 1594 z m -166,550 h 794 V 1625 h 666 V 1100 H 3047 V 0 H 2419 V 1100 H 313 v 609 z"
                 transform="scale(0.015625)" />
            </defs>
            <use
               xlink:href="#DejaVuSans-31"
               id="use102"
               x="0"
               y="0"
               width="100%"
               height="100%" />
            <use
               xlink:href="#DejaVuSans-34"
               x="63.623047"
               id="use104"
               y="0"
               width="100%"
               height="100%" />
            <use
               xlink:href="#DejaVuSans-30"
               x="127.24609"
               id="use106"
               y="0"
               width="100%"
               height="100%" />
            <use
               xlink:href="#DejaVuSans-30"
               x="190.86914"
               id="use108"
               y="0"
               width="100%"
               height="100%" />
          </g>
        </g>
      </g>
      <g
         id="xtick_6">
        <g
           id="line2d_6">
          <g
             id="g116">
            <use
               xlink:href="#ma66466f690"
               x="973.26245"
               y="624.78003"
               style="stroke:#000000;stroke-width:0.8"
               id="use114"
               width="100%"
               height="100%" />
          </g>
        </g>
        <g
           id="text_6">
          <!-- 1600 -->
          <g
             transform="matrix(0.1,0,0,-0.1,960.53746,639.37844)"
             id="g127">
            <use
               xlink:href="#DejaVuSans-31"
               id="use119"
               x="0"
               y="0"
               width="100%"
               height="100%" />
            <use
               xlink:href="#DejaVuSans-36"
               x="63.623047"
               id="use121"
               y="0"
               width="100%"
               height="100%" />
            <use
               xlink:href="#DejaVuSans-30"
               x="127.24609"
               id="use123"
               y="0"
               width="100%"
               height="100%" />
            <use
               xlink:href="#DejaVuSans-30"
               x="190.86914"
               id="use125"
               y="0"
               width="100%"
               height="100%" />
          </g>
        </g>
      </g>
      <g
         id="xtick_7">
        <g
           id="line2d_7">
          <g
             id="g133">
            <use
               xlink:href="#ma66466f690"
               x="1113.9628"
               y="624.78003"
               style="stroke:#000000;stroke-width:0.8"
               id="use131"
               width="100%"
               height="100%" />
          </g>
        </g>
        <g
           id="text_7">
          <!-- 1800 -->
          <g
             transform="matrix(0.1,0,0,-0.1,1101.2377,639.37844)"
             id="g144">
            <use
               xlink:href="#DejaVuSans-31"
               id="use136"
               x="0"
               y="0"
               width="100%"
               height="100%" />
            <use
               xlink:href="#DejaVuSans-38"
               x="63.623047"
               id="use138"
               y="0"
               width="100%"
               height="100%" />
            <use
               xlink:href="#DejaVuSans-30"
               x="127.24609"
               id="use140"
               y="0"
               width="100%"
               height="100%" />
            <use
               xlink:href="#DejaVuSans-30"
               x="190.86914"
               id="use142"
               y="0"
               width="100%"
               height="100%" />
          </g>
        </g>
      </g>
      <g
         id="text_8">
        <!-- Time [ns] -->
        <g
           transform="matrix(0.1,0,0,-0.1,684.98234,653.05656)"
           id="g177">
          <defs
             id="defs157">
            <path
               id="DejaVuSans-54"
               d="M -19,4666 H 3928 V 4134 H 2272 V 0 H 1638 V 4134 H -19 Z"
               transform="scale(0.015625)" />
            <path
               id="DejaVuSans-69"
               d="m 603,3500 h 575 V 0 H 603 Z m 0,1363 h 575 V 4134 H 603 Z"
               transform="scale(0.015625)" />
            <path
               id="DejaVuSans-6d"
               d="m 3328,2828 q 216,388 516,572 300,184 706,184 547,0 844,-383 297,-382 297,-1088 V 0 h -578 v 2094 q 0,503 -179,746 -178,244 -543,244 -447,0 -707,-297 -259,-296 -259,-809 V 0 h -578 v 2094 q 0,506 -178,748 -178,242 -550,242 -441,0 -701,-298 -259,-298 -259,-808 V 0 H 581 v 3500 h 578 v -544 q 197,322 472,475 275,153 653,153 382,0 649,-194 267,-193 395,-562 z"
               transform="scale(0.015625)" />
            <path
               id="DejaVuSans-65"
               d="M 3597,1894 V 1613 H 953 q 38,-594 358,-905 320,-311 892,-311 331,0 642,81 311,81 618,244 V 178 Q 3153,47 2828,-22 2503,-91 2169,-91 1331,-91 842,396 353,884 353,1716 q 0,859 464,1363 464,505 1252,505 706,0 1117,-455 411,-454 411,-1235 z m -575,169 q -6,471 -264,752 -258,282 -683,282 -481,0 -770,-272 -289,-272 -333,-766 z"
               transform="scale(0.015625)" />
            <path
               id="DejaVuSans-20"
               transform="scale(0.015625)"
               d="" />
            <path
               id="DejaVuSans-5b"
               d="M 550,4863 H 1875 V 4416 H 1125 V -397 h 750 V -844 H 550 Z"
               transform="scale(0.015625)" />
            <path
               id="DejaVuSans-6e"
               d="M 3513,2113 V 0 h -575 v 2094 q 0,497 -194,743 -194,247 -581,247 -466,0 -735,-297 -269,-296 -269,-809 V 0 H 581 v 3500 h 578 v -544 q 207,316 486,472 280,156 646,156 603,0 912,-373 310,-373 310,-1098 z"
               transform="scale(0.015625)" />
            <path
               id="DejaVuSans-73"
               d="m 2834,3397 v -544 q -243,125 -506,187 -262,63 -544,63 -428,0 -642,-131 -214,-131 -214,-394 0,-200 153,-314 153,-114 616,-217 l 197,-44 q 612,-131 870,-370 258,-239 258,-667 0,-488 -386,-773 Q 2250,-91 1575,-91 1294,-91 989,-36 684,19 347,128 v 594 q 319,-166 628,-249 309,-82 613,-82 406,0 624,139 219,139 219,392 0,234 -158,359 -157,125 -692,241 l -200,47 q -534,112 -772,345 -237,233 -237,639 0,494 350,762 350,269 994,269 318,0 599,-47 282,-46 519,-140 z"
               transform="scale(0.015625)" />
            <path
               id="DejaVuSans-5d"
               d="M 1947,4863 V -844 H 622 v 447 h 747 V 4416 H 622 v 447 z"
               transform="scale(0.015625)" />
          </defs>
          <use
             xlink:href="#DejaVuSans-54"
             id="use159"
             x="0"
             y="0"
             width="100%"
             height="100%" />
          <use
             xlink:href="#DejaVuSans-69"
             x="57.958984"
             id="use161"
             y="0"
             width="100%"
             height="100%" />
          <use
             xlink:href="#DejaVuSans-6d"
             x="85.742188"
             id="use163"
             y="0"
             width="100%"
             height="100%" />
          <use
             xlink:href="#DejaVuSans-65"
             x="183.1543"
             id="use165"
             y="0"
             width="100%"
             height="100%" />
          <use
             xlink:href="#DejaVuSans-20"
             x="244.67773"
             id="use167"
             y="0"
             width="100%"
             height="100%" />
          <use
             xlink:href="#DejaVuSans-5b"
             x="276.46484"
             id="use169"
             y="0"
             width="100%"
             height="100%" />
          <use
             xlink:href="#DejaVuSans-6e"
             x="315.47852"
             id="use171"
             y="0"
             width="100%"
             height="100%" />
          <use
             xlink:href="#DejaVuSans-73"
             x="378.85742"
             id="use173"
             y="0"
             width="100%"
             height="100%" />
          <use
             xlink:href="#DejaVuSans-5d"
             x="430.95703"
             id="use175"
             y="0"
             width="100%"
             height="100%" />
        </g>
      </g>
    </g>
    <g
       id="matplotlib.axis_2"
       transform="translate(-4.5)">
      <g
         id="ytick_1">
        <g
           id="line2d_8">
          <defs
             id="defs182">
            <path
               id="m8b69100005"
               d="M 0,0 H -3.5"
               style="stroke:#000000;stroke-width:0.8" />
          </defs>
          <g
             id="g186">
            <use
               xlink:href="#m8b69100005"
               x="172.8"
               y="615.39825"
               style="stroke:#000000;stroke-width:0.8"
               id="use184"
               width="100%"
               height="100%" />
          </g>
        </g>
        <g
           id="text_9">
          <!-- −0.20 -->
          <g
             transform="matrix(0.1,0,0,-0.1,135.15469,619.19748)"
             id="g203">
            <defs
               id="defs191">
              <path
                 id="DejaVuSans-2212"
                 d="M 678,2272 H 4684 V 1741 H 678 Z"
                 transform="scale(0.015625)" />
              <path
                 id="DejaVuSans-2e"
                 d="m 684,794 h 660 V 0 H 684 Z"
                 transform="scale(0.015625)" />
            </defs>
            <use
               xlink:href="#DejaVuSans-2212"
               id="use193"
               x="0"
               y="0"
               width="100%"
               height="100%" />
            <use
               xlink:href="#DejaVuSans-30"
               x="83.789062"
               id="use195"
               y="0"
               width="100%"
               height="100%" />
            <use
               xlink:href="#DejaVuSans-2e"
               x="147.41211"
               id="use197"
               y="0"
               width="100%"
               height="100%" />
            <use
               xlink:href="#DejaVuSans-32"
               x="179.19922"
               id="use199"
               y="0"
               width="100%"
               height="100%" />
            <use
               xlink:href="#DejaVuSans-30"
               x="242.82227"
               id="use201"
               y="0"
               width="100%"
               height="100%" />
          </g>
        </g>
      </g>
      <g
         id="ytick_2">
        <g
           id="line2d_9">
          <g
             id="g209">
            <use
               xlink:href="#m8b69100005"
               x="172.8"
               y="550.72107"
               style="stroke:#000000;stroke-width:0.8"
               id="use207"
               width="100%"
               height="100%" />
          </g>
        </g>
        <g
           id="text_10">
          <!-- −0.15 -->
          <g
             transform="matrix(0.1,0,0,-0.1,135.15469,554.52031)"
             id="g225">
            <defs
               id="defs213">
              <path
                 id="DejaVuSans-35"
                 d="M 691,4666 H 3169 V 4134 H 1269 V 2991 q 137,47 274,70 138,23 276,23 781,0 1237,-428 457,-428 457,-1159 Q 3513,744 3044,326 2575,-91 1722,-91 1428,-91 1123,-41 819,9 494,109 v 635 q 281,-153 581,-228 300,-75 634,-75 541,0 856,284 316,284 316,772 0,487 -316,771 -315,285 -856,285 -253,0 -505,-56 -251,-56 -513,-175 z"
                 transform="scale(0.015625)" />
            </defs>
            <use
               xlink:href="#DejaVuSans-2212"
               id="use215"
               x="0"
               y="0"
               width="100%"
               height="100%" />
            <use
               xlink:href="#DejaVuSans-30"
               x="83.789062"
               id="use217"
               y="0"
               width="100%"
               height="100%" />
            <use
               xlink:href="#DejaVuSans-2e"
               x="147.41211"
               id="use219"
               y="0"
               width="100%"
               height="100%" />
            <use
               xlink:href="#DejaVuSans-31"
               x="179.19922"
               id="use221"
               y="0"
               width="100%"
               height="100%" />
            <use
               xlink:href="#DejaVuSans-35"
               x="242.82227"
               id="use223"
               y="0"
               width="100%"
               height="100%" />
          </g>
        </g>
      </g>
      <g
         id="ytick_3">
        <g
           id="line2d_10">
          <g
             id="g231">
            <use
               xlink:href="#m8b69100005"
               x="172.8"
               y="486.04391"
               style="stroke:#000000;stroke-width:0.8"
               id="use229"
               width="100%"
               height="100%" />
          </g>
        </g>
        <g
           id="text_11">
          <!-- −0.10 -->
          <g
             transform="matrix(0.1,0,0,-0.1,135.15469,489.84315)"
             id="g244">
            <use
               xlink:href="#DejaVuSans-2212"
               id="use234"
               x="0"
               y="0"
               width="100%"
               height="100%" />
            <use
               xlink:href="#DejaVuSans-30"
               x="83.789062"
               id="use236"
               y="0"
               width="100%"
               height="100%" />
            <use
               xlink:href="#DejaVuSans-2e"
               x="147.41211"
               id="use238"
               y="0"
               width="100%"
               height="100%" />
            <use
               xlink:href="#DejaVuSans-31"
               x="179.19922"
               id="use240"
               y="0"
               width="100%"
               height="100%" />
            <use
               xlink:href="#DejaVuSans-30"
               x="242.82227"
               id="use242"
               y="0"
               width="100%"
               height="100%" />
          </g>
        </g>
      </g>
      <g
         id="ytick_4">
        <g
           id="line2d_11">
          <g
             id="g250">
            <use
               xlink:href="#m8b69100005"
               x="172.8"
               y="421.36676"
               style="stroke:#000000;stroke-width:0.8"
               id="use248"
               width="100%"
               height="100%" />
          </g>
        </g>
        <g
           id="text_12">
          <!-- −0.05 -->
          <g
             transform="matrix(0.1,0,0,-0.1,135.15469,425.16598)"
             id="g263">
            <use
               xlink:href="#DejaVuSans-2212"
               id="use253"
               x="0"
               y="0"
               width="100%"
               height="100%" />
            <use
               xlink:href="#DejaVuSans-30"
               x="83.789062"
               id="use255"
               y="0"
               width="100%"
               height="100%" />
            <use
               xlink:href="#DejaVuSans-2e"
               x="147.41211"
               id="use257"
               y="0"
               width="100%"
               height="100%" />
            <use
               xlink:href="#DejaVuSans-30"
               x="179.19922"
               id="use259"
               y="0"
               width="100%"
               height="100%" />
            <use
               xlink:href="#DejaVuSans-35"
               x="242.82227"
               id="use261"
               y="0"
               width="100%"
               height="100%" />
          </g>
        </g>
      </g>
      <g
         id="ytick_5">
        <g
           id="line2d_12">
          <g
             id="g269">
            <use
               xlink:href="#m8b69100005"
               x="172.8"
               y="356.68961"
               style="stroke:#000000;stroke-width:0.8"
               id="use267"
               width="100%"
               height="100%" />
          </g>
        </g>
        <g
           id="text_13">
          <!-- 0.00 -->
          <g
             transform="matrix(0.1,0,0,-0.1,143.53437,360.48882)"
             id="g280">
            <use
               xlink:href="#DejaVuSans-30"
               id="use272"
               x="0"
               y="0"
               width="100%"
               height="100%" />
            <use
               xlink:href="#DejaVuSans-2e"
               x="63.623047"
               id="use274"
               y="0"
               width="100%"
               height="100%" />
            <use
               xlink:href="#DejaVuSans-30"
               x="95.410156"
               id="use276"
               y="0"
               width="100%"
               height="100%" />
            <use
               xlink:href="#DejaVuSans-30"
               x="159.0332"
               id="use278"
               y="0"
               width="100%"
               height="100%" />
          </g>
        </g>
      </g>
      <g
         id="ytick_6">
        <g
           id="line2d_13">
          <g
             id="g286">
            <use
               xlink:href="#m8b69100005"
               x="172.8"
               y="292.01242"
               style="stroke:#000000;stroke-width:0.8"
               id="use284"
               width="100%"
               height="100%" />
          </g>
        </g>
        <g
           id="text_14">
          <!-- 0.05 -->
          <g
             transform="matrix(0.1,0,0,-0.1,143.53437,295.81165)"
             id="g297">
            <use
               xlink:href="#DejaVuSans-30"
               id="use289"
               x="0"
               y="0"
               width="100%"
               height="100%" />
            <use
               xlink:href="#DejaVuSans-2e"
               x="63.623047"
               id="use291"
               y="0"
               width="100%"
               height="100%" />
            <use
               xlink:href="#DejaVuSans-30"
               x="95.410156"
               id="use293"
               y="0"
               width="100%"
               height="100%" />
            <use
               xlink:href="#DejaVuSans-35"
               x="159.0332"
               id="use295"
               y="0"
               width="100%"
               height="100%" />
          </g>
        </g>
      </g>
      <g
         id="ytick_7">
        <g
           id="line2d_14">
          <g
             id="g303">
            <use
               xlink:href="#m8b69100005"
               x="172.8"
               y="227.33527"
               style="stroke:#000000;stroke-width:0.8"
               id="use301"
               width="100%"
               height="100%" />
          </g>
        </g>
        <g
           id="text_15">
          <!-- 0.10 -->
          <g
             transform="matrix(0.1,0,0,-0.1,143.53437,231.13448)"
             id="g314">
            <use
               xlink:href="#DejaVuSans-30"
               id="use306"
               x="0"
               y="0"
               width="100%"
               height="100%" />
            <use
               xlink:href="#DejaVuSans-2e"
               x="63.623047"
               id="use308"
               y="0"
               width="100%"
               height="100%" />
            <use
               xlink:href="#DejaVuSans-31"
               x="95.410156"
               id="use310"
               y="0"
               width="100%"
               height="100%" />
            <use
               xlink:href="#DejaVuSans-30"
               x="159.0332"
               id="use312"
               y="0"
               width="100%"
               height="100%" />
          </g>
        </g>
      </g>
      <g
         id="ytick_8">
        <g
           id="line2d_15">
          <g
             id="g320">
            <use
               xlink:href="#m8b69100005"
               x="172.8"
               y="162.6581"
               style="stroke:#000000;stroke-width:0.8"
               id="use318"
               width="100%"
               height="100%" />
          </g>
        </g>
        <g
           id="text_16">
          <!-- 0.15 -->
          <g
             transform="matrix(0.1,0,0,-0.1,143.53437,166.45732)"
             id="g331">
            <use
               xlink:href="#DejaVuSans-30"
               id="use323"
               x="0"
               y="0"
               width="100%"
               height="100%" />
            <use
               xlink:href="#DejaVuSans-2e"
               x="63.623047"
               id="use325"
               y="0"
               width="100%"
               height="100%" />
            <use
               xlink:href="#DejaVuSans-31"
               x="95.410156"
               id="use327"
               y="0"
               width="100%"
               height="100%" />
            <use
               xlink:href="#DejaVuSans-35"
               x="159.0332"
               id="use329"
               y="0"
               width="100%"
               height="100%" />
          </g>
        </g>
      </g>
      <g
         id="ytick_9">
        <g
           id="line2d_16">
          <g
             id="g337">
            <use
               xlink:href="#m8b69100005"
               x="172.8"
               y="97.980934"
               style="stroke:#000000;stroke-width:0.8"
               id="use335"
               width="100%"
               height="100%" />
          </g>
        </g>
        <g
           id="text_17">
          <!-- 0.20 -->
          <g
             transform="matrix(0.1,0,0,-0.1,143.53437,101.78015)"
             id="g348">
            <use
               xlink:href="#DejaVuSans-30"
               id="use340"
               x="0"
               y="0"
               width="100%"
               height="100%" />
            <use
               xlink:href="#DejaVuSans-2e"
               x="63.623047"
               id="use342"
               y="0"
               width="100%"
               height="100%" />
            <use
               xlink:href="#DejaVuSans-32"
               x="95.410156"
               id="use344"
               y="0"
               width="100%"
               height="100%" />
            <use
               xlink:href="#DejaVuSans-30"
               x="159.0332"
               id="use346"
               y="0"
               width="100%"
               height="100%" />
          </g>
        </g>
      </g>
      <g
         id="text_18">
        <!-- Output -->
        <g
           transform="matrix(0,-0.1,-0.1,0,129.075,371.87797)"
           id="g370">
          <defs
             id="defs356">
            <path
               id="DejaVuSans-4f"
               d="m 2522,4238 q -688,0 -1093,-513 -404,-512 -404,-1397 0,-881 404,-1394 405,-512 1093,-512 687,0 1089,512 402,513 402,1394 0,885 -402,1397 -402,513 -1089,513 z m 0,512 q 981,0 1568,-658 588,-658 588,-1764 0,-1103 -588,-1761 -587,-658 -1568,-658 -984,0 -1574,656 -589,657 -589,1763 0,1106 589,1764 590,658 1574,658 z"
               transform="scale(0.015625)" />
            <path
               id="DejaVuSans-75"
               d="m 544,1381 v 2119 h 575 V 1403 q 0,-497 193,-746 194,-248 582,-248 465,0 735,297 271,297 271,810 v 1984 h 575 V 0 H 2900 V 538 Q 2691,219 2414,64 2138,-91 1772,-91 1169,-91 856,284 544,659 544,1381 Z m 1447,2203 z"
               transform="scale(0.015625)" />
            <path
               id="DejaVuSans-74"
               d="M 1172,4494 V 3500 H 2356 V 3053 H 1172 V 1153 q 0,-428 117,-550 117,-122 477,-122 h 590 V 0 H 1766 Q 1100,0 847,248 594,497 594,1153 V 3053 H 172 v 447 h 422 v 994 z"
               transform="scale(0.015625)" />
            <path
               id="DejaVuSans-70"
               d="M 1159,525 V -1331 H 581 v 4831 h 578 v -531 q 182,312 458,463 277,152 661,152 638,0 1036,-506 399,-506 399,-1331 0,-825 -399,-1332 -398,-506 -1036,-506 -384,0 -661,152 -276,152 -458,464 z m 1957,1222 q 0,634 -261,995 -261,361 -717,361 -457,0 -718,-361 -261,-361 -261,-995 0,-634 261,-995 261,-361 718,-361 456,0 717,361 261,361 261,995 z"
               transform="scale(0.015625)" />
          </defs>
          <use
             xlink:href="#DejaVuSans-4f"
             id="use358"
             x="0"
             y="0"
             width="100%"
             height="100%" />
          <use
             xlink:href="#DejaVuSans-75"
             x="78.710938"
             id="use360"
             y="0"
             width="100%"
             height="100%" />
          <use
             xlink:href="#DejaVuSans-74"
             x="142.08984"
             id="use362"
             y="0"
             width="100%"
             height="100%" />
          <use
             xlink:href="#DejaVuSans-70"
             x="181.29883"
             id="use364"
             y="0"
             width="100%"
             height="100%" />
          <use
             xlink:href="#DejaVuSans-75"
             x="244.77539"
             id="use366"
             y="0"
             width="100%"
             height="100%" />
          <use
             xlink:href="#DejaVuSans-74"
             x="308.1543"
             id="use368"
             y="0"
             width="100%"
             height="100%" />
        </g>
      </g>
    </g>
    <g
       id="line2d_17"
       transform="translate(-4.5)">
      <path
         d="m 172.67788,610.18659 0.7035,-2.12745 1.407,-5.32299 1.40701,-6.72107 1.407,-8.08097 1.407,-9.39494 1.407,-10.65554 2.11051,-18.2126 2.1105,-20.6784 2.11051,-22.87997 2.814,-33.42244 2.81401,-36.05525 4.22101,-57.21751 7.73851,-105.75876 3.51751,-44.44193 2.814,-32.37281 2.11051,-21.936 2.1105,-19.6133 2.11051,-17.04001 1.407,-9.82144 1.407,-8.52443 1.40701,-7.179 1.407,-5.79277 1.407,-4.37363 0.7035,-1.64655 0.7035,-1.283085 0.70351,-0.917792 0.7035,-0.551197 0.7035,-0.18382 0.7035,0.18382 0.7035,0.551197 0.7035,0.917792 0.7035,1.283085 0.70351,1.64655 0.7035,2.00768 1.407,5.08681 1.407,6.4905 1.407,7.8573 1.40701,9.17946 1.407,10.44945 2.1105,17.92365 2.11051,20.41692 2.1105,22.64931 2.81401,33.16785 2.814,35.86639 4.22101,57.06645 8.44202,115.12656 2.814,35.47173 2.81401,32.64299 2.1105,22.17728 2.11051,19.88434 2.1105,17.3373 1.40701,10.03237 1.407,8.74417 1.407,7.40629 1.407,6.02631 1.40701,4.6121 0.7035,1.76721 0.7035,1.40446 0.7035,1.03973 0.7035,0.67351 0.7035,0.30633 0.70351,-0.0613 0.7035,-0.4288 0.7035,-0.79571 0.7035,-1.16149 0.7035,-1.52563 0.7035,-1.8876 1.407,-4.84983 1.40701,-6.2589 1.407,-7.6324 1.407,-8.96252 1.40701,-10.24172 2.1105,-17.63187 2.1105,-20.15222 2.11051,-22.41507 2.814,-32.90801 2.81401,-35.67189 4.22101,-56.90637 8.44201,-115.30022 2.81401,-35.67189 2.81401,-32.90801 2.1105,-22.41507 2.1105,-20.15221 2.11051,-17.63188 1.407,-10.24172 1.407,-8.96252 1.40701,-7.63239 1.407,-6.2589 1.407,-4.84984 0.7035,-1.88759 0.70351,-1.52563 0.7035,-1.161498 0.7035,-0.795713 0.7035,-0.4288 0.7035,-0.06128 0.7035,0.306333 0.7035,0.673509 0.70351,1.039729 0.7035,1.40447 0.7035,1.76721 0.7035,2.12744 1.407,5.32299 1.40701,6.72107 1.407,8.08097 1.407,9.39494 1.407,10.65554 2.11051,18.2126 2.1105,20.6784 2.11051,22.87998 2.814,33.42244 2.81401,36.05524 4.22101,57.21751 7.73851,105.75876 3.51751,44.44194 2.814,32.3728 2.11051,21.936 2.1105,19.61331 2.11051,17.04 1.407,9.82144 1.407,8.52443 1.407,7.179 1.40701,5.79278 1.407,4.37363 0.7035,1.64654 0.7035,1.28309 0.7035,0.91779 0.7035,0.5512 0.70351,0.18382 0.7035,-0.18382 0.7035,-0.5512 0.7035,-0.91779 0.7035,-1.28309 0.7035,-1.64654 0.7035,-2.00768 1.40701,-5.08682 1.407,-6.49049 1.407,-7.85731 1.40701,-9.17945 1.407,-10.44946 2.1105,-17.92365 2.11051,-20.41692 2.1105,-22.64931 2.81401,-33.16784 2.814,-35.8664 4.22101,-57.06645 8.44202,-115.12655 2.814,-35.47174 2.81401,-32.64299 2.1105,-22.17728 2.11051,-19.88433 2.1105,-17.33731 1.407,-10.03237 1.40701,-8.74417 1.407,-7.40628 1.407,-6.02631 1.407,-4.6121 0.70351,-1.76721 0.7035,-1.40447 0.7035,-1.039729 0.7035,-0.673509 0.7035,-0.306333 0.7035,0.06128 0.7035,0.4288 0.70351,0.795713 0.7035,1.161498 0.7035,1.52563 0.7035,1.88759 1.407,4.84984 1.40701,6.2589 1.407,7.63239 1.407,8.96252 1.407,10.24172 2.11051,17.63188 2.1105,20.15221 2.11051,22.41507 2.814,32.90801 2.81401,35.67189 4.22101,56.90637 8.44201,115.30022 2.81401,35.67189 2.814,32.90801 2.11051,22.41507 2.1105,20.15222 2.11051,17.63187 1.407,10.24172 1.407,8.96252 1.407,7.6324 1.40701,6.2589 1.407,4.84983 0.7035,1.8876 0.7035,1.52563 0.7035,1.16149 0.70351,0.79571 0.7035,0.4288 0.7035,0.0613 0.7035,-0.30633 0.7035,-0.67351 0.7035,-1.03973 0.7035,-1.40446 0.70351,-1.76721 0.7035,-2.12745 1.407,-5.32299 1.407,-6.72107 1.40701,-8.08097 1.407,-9.39494 1.407,-10.65554 2.11051,-18.2126 2.1105,-20.6784 2.1105,-22.87997 2.81401,-33.42244 2.81401,-36.05525 4.221,-57.21751 7.73852,-105.75876 3.51751,-44.44193 2.814,-32.37281 2.1105,-21.936 2.11051,-19.6133 2.1105,-17.04001 1.40701,-9.82144 1.407,-8.52443 1.407,-7.179 1.407,-5.79277 1.40701,-4.37363 0.7035,-1.64655 0.7035,-1.283085 0.7035,-0.917792 0.7035,-0.551197 0.7035,-0.18382 0.70351,0.18382 0.7035,0.551197 0.7035,0.917792 0.7035,1.283085 0.7035,1.64655 0.7035,2.00768 1.40701,5.08681 1.407,6.4905 1.407,7.8573 1.407,9.17946 1.40701,10.44945 2.1105,17.92365 2.11051,20.41692 2.1105,22.64931 2.814,33.16785 2.81401,35.86639 4.22101,57.06645 8.44201,115.12656 2.81401,35.47173 2.81401,32.64299 2.1105,22.17728 2.1105,19.88434 2.11051,17.3373 1.407,10.03237 1.40701,8.74417 1.407,7.40629 1.407,6.02631 1.407,4.6121 0.7035,1.76721 0.70351,1.40446 0.7035,1.03973 0.7035,0.67351 0.7035,0.30633 0.7035,-0.0613 0.7035,-0.4288 0.7035,-0.79571 0.70351,-1.16149 0.7035,-1.52563 0.7035,-1.8876 1.407,-4.84983 1.407,-6.2589 1.40701,-7.6324 1.407,-8.96252 1.407,-10.24172 2.11051,-17.63187 2.1105,-20.15222 2.11051,-22.41507 2.814,-32.90801 2.81401,-35.67189 4.221,-56.90637 8.44202,-115.30022 2.81401,-35.67189 2.814,-32.90801 2.11051,-22.41507 2.1105,-20.15221 2.1105,-17.63188 1.40701,-10.24172 1.407,-8.96252 1.407,-7.63239 1.40701,-6.2589 1.407,-4.84984 0.7035,-1.88759 0.7035,-1.52563 0.7035,-1.161498 0.7035,-0.795713 0.7035,-0.4288 0.70351,-0.06128 0.7035,0.306333 0.7035,0.673509 0.7035,1.039729 0.7035,1.40447 0.7035,1.76721 0.7035,2.12744 1.40701,5.32299 1.407,6.72107 1.407,8.08097 1.40701,9.39494 1.407,10.65554 2.1105,18.2126 2.11051,20.6784 2.1105,22.87998 2.81401,33.42244 2.814,36.05524 4.22101,57.21751 7.73852,105.75876 3.5175,44.44194 2.81401,32.3728 2.1105,21.936 2.11051,19.61331 2.1105,17.04 1.407,9.82144 1.40701,8.52443 1.407,7.179 1.407,5.79278 1.40701,4.37363 0.7035,1.64654 0.7035,1.28309 0.7035,0.91779 0.7035,0.5512 0.7035,0.18382 0.7035,-0.18382 0.7035,-0.5512 0.70351,-0.91779 0.7035,-1.28309 0.7035,-1.64654 0.7035,-2.00768 1.407,-5.08682 1.40701,-6.49049 1.407,-7.85731 1.407,-9.17945 1.407,-10.44946 2.11051,-17.92365 2.1105,-20.41692 2.11051,-22.64931 2.814,-33.16784 2.81401,-35.8664 4.22101,-57.06645 8.44201,-115.12655 2.81401,-35.47174 2.81401,-32.64299 2.1105,-22.17728 2.1105,-19.88433 2.11051,-17.33731 1.407,-10.03237 1.407,-8.74417 1.407,-7.40628 1.40701,-6.02631 1.407,-4.6121 0.7035,-1.76721 0.7035,-1.40447 0.70351,-1.039729 0.7035,-0.673509 0.7035,-0.306333 0.7035,0.06128 0.7035,0.4288 0.7035,0.795713 0.7035,1.161498 0.7035,1.52563 0.70351,1.88759 1.407,4.84984 1.407,6.2589 1.40701,7.63239 1.407,8.96252 1.407,10.24172 2.1105,17.63188 2.11051,20.15221 2.1105,22.41507 2.81401,32.90801 2.814,35.67189 4.22101,56.90637 8.44202,115.30022 2.814,35.67189 2.81401,32.90801 2.1105,22.41507 2.11051,20.15222 2.1105,17.63187 1.407,10.24172 1.40701,8.96252 1.407,7.6324 1.407,6.2589 1.40701,4.84983 0.7035,1.8876 0.7035,1.52563 0.7035,1.16149 0.7035,0.79571 0.7035,0.4288 0.7035,0.0613 0.70351,-0.30633 0.7035,-0.67351 0.7035,-1.03973 0.7035,-1.40446 0.7035,-1.76721 0.7035,-2.12745 1.40701,-5.32299 1.407,-6.72107 1.407,-8.08097 1.407,-9.39494 1.40701,-10.65554 2.1105,-18.2126 2.1105,-20.6784 2.11051,-22.87997 2.81401,-33.42244 2.814,-36.05525 4.22101,-57.21751 7.73851,-105.75876 3.51751,-44.44193 2.81401,-32.37281 2.1105,-21.936 2.11051,-19.6133 2.1105,-17.04001 1.407,-9.82144 1.407,-8.52443 1.40701,-7.179 1.407,-5.79277 1.407,-4.37363 0.70351,-1.64655 0.7035,-1.283085 0.7035,-0.917792 0.7035,-0.551197 0.7035,-0.18382 0.7035,0.18382 0.7035,0.551197 0.7035,0.917792 0.70351,1.283085 0.7035,1.64655 0.7035,2.00768 1.407,5.08681 1.407,6.4905 1.40701,7.8573 1.407,9.17946 1.407,10.44945 2.11051,17.92365 2.1105,20.41692 2.1105,22.64931 2.81401,33.16785 2.81401,35.86639 4.221,57.06645 8.44202,115.12656 2.81401,35.47173 2.814,32.64299 2.11051,22.17728 2.1105,19.88434 2.11051,17.3373 1.407,10.03237 1.407,8.74417 1.407,7.40629 1.40701,6.02631 1.407,4.6121 0.7035,1.76721 0.7035,1.40446 0.7035,1.03973 0.7035,0.67351 0.70351,0.30633 0.7035,-0.0613 0.7035,-0.4288 0.7035,-0.79571 0.7035,-1.16149 0.7035,-1.52563 0.7035,-1.8876 1.40701,-4.84983 1.407,-6.2589 1.407,-7.6324 1.407,-8.96252 1.40699,-10.24172 2.1105,-17.63187 2.1105,-20.15222 2.1105,-22.41507 2.814,-32.90801 2.814,-35.67189 4.221,-56.90637 8.4421,-115.30022 2.814,-35.67189 2.814,-32.90801 2.1105,-22.41507 2.1105,-20.15221 2.1105,-17.63188 1.407,-10.24172 1.407,-8.96252 1.407,-7.63239 1.407,-6.2589 1.407,-4.84984 0.7035,-1.88759 0.7035,-1.52563 0.7035,-1.161498 0.7035,-0.795713 0.7035,-0.4288 0.7035,-0.06128 0.7035,0.306333 0.7035,0.673509 0.7035,1.039729 0.7035,1.40447 0.7035,1.76721 0.7035,2.12744 1.407,5.32299 1.407,6.72107 1.407,8.08097 1.407,9.39494 1.407,10.65554 2.1105,18.2126 2.1105,20.6784 2.1105,22.87998 2.8141,33.42244 2.814,36.05524 4.221,57.21751 7.7385,105.75876 3.5175,44.44194 2.814,32.3728 2.1105,21.936 2.1105,19.61331 2.1105,17.04 1.407,9.82144 1.407,8.52443 1.407,7.179 1.407,5.79278 1.407,4.37363 0.7035,1.64654 0.7035,1.28309 0.7035,0.91779 0.7035,0.5512 0.7035,0.18382 0.7035,-0.18382 0.7035,-0.5512 0.7035,-0.91779 0.7035,-1.28309 0.7035,-1.64654 0.7035,-2.00768 1.407,-5.08682 1.407,-6.49049 1.407,-7.85731 1.407,-9.17945 1.4071,-10.44946 2.1105,-17.92365 2.1105,-20.41692 2.1105,-22.64931 2.814,-33.16784 2.814,-35.8664 4.221,-57.06645 8.442,-115.12655 2.814,-35.47174 2.814,-32.64299 2.1105,-22.17728 2.1105,-19.88433 2.1105,-17.33731 1.407,-10.03237 1.407,-8.74417 1.407,-7.40628 1.407,-6.02631 1.407,-4.6121 0.7035,-1.76721 0.7035,-1.40447 0.7035,-1.039729 0.7035,-0.673509 0.7035,-0.306333 0.7035,0.06128 0.7035,0.4288 0.7035,0.795713 0.7035,1.161498 0.7036,1.52563 0.7035,1.88759 1.407,4.84984 1.407,6.2589 1.407,7.63239 1.407,8.96252 1.407,10.24172 2.1105,17.63188 2.1105,20.15221 2.1105,22.41507 2.814,32.90801 2.814,35.67189 4.221,56.90637 8.442,115.30022 2.814,35.67189 2.814,32.90801 2.1105,22.41507 2.1105,20.15222 2.1105,17.63187 1.407,10.24172 1.407,8.96252 1.407,7.6324 1.407,6.2589 1.4071,4.84983 0.7035,1.8876 0.7035,1.52563 0.7035,1.16149 0.7035,0.79571 0.7035,0.4288 0.7035,0.0613 0.7035,-0.30633 0.7035,-0.67351 0.7035,-1.03973 0.7035,-1.40446 0.7035,-1.76721 0.7035,-2.12745 1.407,-5.32299 1.407,-6.72107 1.407,-8.08097 1.407,-9.39494 1.407,-10.65554 2.1105,-18.2126 2.1105,-20.6784 2.1105,-22.87997 2.814,-33.42244 v 0"
         clip-path="url(#p4e8f467822)"
         style="fill:none;stroke:#1f77b4;stroke-width:1.5;stroke-linecap:square"
         id="path374" />
    </g>
    <g
       id="line2d_18"
       transform="translate(-4.5)">
      <path
         d="m 172.67788,610.18659 0.7035,-2.12745 1.407,-5.32299 1.40701,-6.72107 1.407,-8.08097 1.407,-9.39494 1.407,-10.65554 2.11051,-18.2126 2.1105,-20.6784 2.11051,-22.87997 2.814,-33.42244 2.81401,-36.05525 4.22101,-57.21751 7.73851,-105.75876 3.51751,-44.44193 2.814,-32.37281 2.11051,-21.936 2.1105,-19.6133 2.11051,-17.04001 1.407,-9.82144 1.407,-8.52443 1.40701,-7.179 1.407,-5.79277 1.407,-4.37363 0.7035,-1.64655 0.7035,-1.283085 0.70351,-0.917792 0.7035,-0.551197 0.7035,-0.18382 0.7035,0.18382 0.7035,0.551197 0.7035,0.917792 0.7035,1.283085 0.70351,1.64655 0.7035,2.00768 1.407,5.08681 1.407,6.4905 1.407,7.8573 1.40701,9.17946 1.407,10.44945 2.1105,17.92365 2.11051,20.41692 2.1105,22.64931 2.81401,33.16785 2.814,35.86639 4.22101,57.06645 8.44202,115.12656 2.814,35.47173 2.81401,32.64299 2.1105,22.17728 2.11051,19.88434 2.1105,17.3373 1.40701,10.03237 1.407,8.74417 1.407,7.40629 1.407,6.02631 1.40701,4.6121 0.7035,1.76721 0.7035,1.40446 0.7035,1.03973 0.7035,0.67351 0.7035,0.30633 0.70351,-0.0613 0.7035,-0.4288 0.7035,-0.79571 0.7035,-1.16149 0.7035,-1.52563 0.7035,-1.8876 1.407,-4.84983 1.40701,-6.2589 1.407,-7.6324 1.407,-8.96252 1.40701,-10.24172 2.1105,-17.63187 2.1105,-20.15222 2.11051,-22.41507 2.814,-32.90801 2.81401,-35.67189 4.22101,-56.90637 8.44201,-115.30022 2.81401,-35.67189 2.81401,-32.90801 2.1105,-22.41507 2.1105,-20.15221 2.11051,-17.63188 1.407,-10.24172 1.407,-8.96252 1.40701,-7.63239 1.407,-6.2589 1.407,-4.84984 0.7035,-1.88759 0.70351,-1.52563 0.7035,-1.161498 0.7035,-0.795713 0.7035,-0.4288 0.7035,-0.06128 0.7035,0.306333 0.7035,0.673509 0.70351,1.039729 0.7035,1.40447 0.7035,1.76721 0.7035,2.12744 1.407,5.32299 1.40701,6.72107 1.407,8.08097 1.407,9.39494 1.407,10.65554 2.11051,18.2126 2.1105,20.6784 2.11051,22.87998 2.814,33.42244 2.81401,36.05524 4.22101,57.21751 7.73851,105.75876 3.51751,44.44194 2.814,32.3728 2.11051,21.936 2.1105,19.61331 2.11051,17.04 1.407,9.82144 1.407,8.52443 1.407,7.179 1.40701,5.79278 1.407,4.37363 0.7035,1.64654 0.7035,1.28309 0.7035,0.91779 0.7035,0.5512 0.70351,0.18382 0.7035,-0.18382 0.7035,-0.5512 0.7035,-0.91779 0.7035,-1.28309 0.7035,-1.64654 0.7035,-2.00768 1.40701,-5.08682 1.407,-6.49049 1.407,-7.85731 1.40701,-9.17945 1.407,-10.44946 2.1105,-17.92365 2.11051,-20.41692 2.1105,-22.64931 2.81401,-33.16784 2.814,-35.8664 4.22101,-57.06645 7.03501,-96.57947 0.70351,150.5604 3.5175,44.68847 2.81401,32.64299 2.1105,22.17728 2.11051,19.88434 2.1105,17.3373 1.407,10.03237 1.40701,8.74417 1.407,7.40629 1.407,6.02631 1.407,4.6121 0.70351,1.76721 0.7035,1.40446 0.7035,1.03973 0.7035,0.67351 0.7035,0.30633 0.7035,-0.0613 0.7035,-0.4288 0.70351,-0.79571 0.7035,-1.16149 0.7035,-1.52563 0.7035,-1.8876 1.407,-4.84983 1.40701,-6.2589 1.407,-7.6324 1.407,-8.96252 1.407,-10.24172 2.11051,-17.63187 2.1105,-20.15222 2.11051,-22.41507 2.814,-32.90801 2.81401,-35.67189 4.22101,-56.90637 8.44201,-115.30022 2.81401,-35.67189 2.814,-32.90801 2.11051,-22.41507 2.1105,-20.15221 2.11051,-17.63188 1.407,-10.24172 1.407,-8.96252 1.407,-7.63239 1.40701,-6.2589 1.407,-4.84984 0.7035,-1.88759 0.7035,-1.52563 0.7035,-1.161502 0.70351,-0.795713 0.7035,-0.4288 0.7035,-0.06128 0.7035,0.306333 0.7035,0.673509 0.7035,1.039723 0.7035,1.40447 0.70351,1.76721 0.7035,2.12744 1.407,5.32299 1.407,6.72107 1.40701,8.08097 1.407,9.39494 1.407,10.65554 2.11051,18.2126 2.1105,20.6784 2.1105,22.87998 2.81401,33.42244 2.81401,36.05524 4.221,57.21751 7.73852,105.75876 3.51751,44.44194 2.814,32.3728 2.1105,21.936 2.11051,19.61331 2.1105,17.04 1.40701,9.82144 1.407,8.52443 1.407,7.179 1.407,5.79278 1.40701,4.37363 0.7035,1.64654 0.7035,1.28309 0.7035,0.91779 0.7035,0.5512 0.7035,0.18382 0.70351,-0.18382 0.7035,-0.5512 0.7035,-0.91779 0.7035,-1.28309 0.7035,-1.64654 0.7035,-2.00768 1.40701,-5.08682 1.407,-6.49049 1.407,-7.85731 1.407,-9.17945 1.40701,-10.44946 2.1105,-17.92365 2.11051,-20.41692 2.1105,-22.64931 2.814,-33.16784 2.81401,-35.8664 4.22101,-57.06645 8.44201,-115.12655 2.81401,-35.47174 2.81401,-32.64299 2.1105,-22.17728 2.1105,-19.88433 2.11051,-17.33731 1.407,-10.03237 1.40701,-8.74417 1.407,-7.40628 1.407,-6.02631 1.407,-4.6121 0.7035,-1.76721 0.70351,-1.40447 0.7035,-1.039723 0.7035,-0.673509 0.7035,-0.306333 0.7035,0.06128 0.7035,0.4288 0.7035,0.795713 0.70351,1.161502 0.7035,1.52563 0.7035,1.88759 1.407,4.84984 1.407,6.2589 1.40701,7.63239 1.407,8.96252 1.407,10.24172 2.11051,17.63188 2.1105,20.15221 2.11051,22.41507 2.814,32.90801 2.81401,35.67189 4.221,56.90637 8.44202,115.30022 2.81401,35.67189 2.814,32.90801 2.11051,22.41507 2.1105,20.15222 2.1105,17.63187 1.40701,10.24172 1.407,8.96252 1.407,7.6324 1.40701,6.2589 1.407,4.84983 0.7035,1.8876 0.7035,1.52563 0.7035,1.16149 0.7035,0.79571 0.7035,0.4288 0.70351,0.0613 0.7035,-0.30633 0.7035,-0.67351 0.7035,-1.03973 0.7035,-1.40446 0.7035,-1.76721 0.7035,-2.12745 1.40701,-5.32299 1.407,-6.72107 1.407,-8.08097 1.40701,-9.39494 1.407,-10.65554 2.1105,-18.2126 2.11051,-20.6784 2.1105,-22.87997 2.81401,-33.42244 2.814,-36.05525 2.11051,-28.27867 0.7035,-93.74235 10.55252,143.3274 2.81401,34.61547 2.814,31.53176 2.1105,21.19151 2.11051,18.78183 1.407,11.06262 1.407,9.82144 1.40701,8.52443 1.407,7.179 1.407,5.79278 1.40701,4.37363 0.7035,1.64654 0.7035,1.28309 0.7035,0.91779 0.7035,0.5512 0.7035,0.18382 0.7035,-0.18382 0.7035,-0.5512 0.70351,-0.91779 0.7035,-1.28309 0.7035,-1.64654 0.7035,-2.00768 1.407,-5.08682 1.40701,-6.49049 1.407,-7.85731 1.407,-9.17945 1.407,-10.44946 2.11051,-17.92365 2.1105,-20.41692 2.11051,-22.64931 2.814,-33.16784 2.81401,-35.8664 4.22101,-57.06645 8.44201,-115.12655 2.81401,-35.47174 2.81401,-32.64299 2.1105,-22.17728 2.1105,-19.88433 2.11051,-17.33731 1.407,-10.03237 1.407,-8.74417 1.407,-7.40628 1.40701,-6.02631 1.407,-4.6121 0.7035,-1.76721 0.7035,-1.40447 0.70351,-1.039729 0.7035,-0.673509 0.7035,-0.306333 0.7035,0.06128 0.7035,0.4288 0.7035,0.795713 0.7035,1.161498 0.7035,1.52563 0.70351,1.88759 1.407,4.84984 1.407,6.2589 1.40701,7.63239 1.407,8.96252 1.407,10.24172 2.1105,17.63188 2.11051,20.15221 2.1105,22.41507 2.81401,32.90801 2.814,35.67189 4.22101,56.90637 8.44202,115.30022 2.814,35.67189 2.81401,32.90801 2.1105,22.41507 2.11051,20.15222 2.1105,17.63187 1.407,10.24172 1.40701,8.96252 1.407,7.6324 1.407,6.2589 1.40701,4.84983 0.7035,1.8876 0.7035,1.52563 0.7035,1.16149 0.7035,0.79571 0.7035,0.4288 0.7035,0.0613 0.70351,-0.30633 0.7035,-0.67351 0.7035,-1.03973 0.7035,-1.40446 0.7035,-1.76721 0.7035,-2.12745 1.40701,-5.32299 1.407,-6.72107 1.407,-8.08097 1.407,-9.39494 1.40701,-10.65554 2.1105,-18.2126 2.1105,-20.6784 2.11051,-22.87997 2.81401,-33.42244 2.814,-36.05525 4.22101,-57.21751 7.73851,-105.75876 3.51751,-44.44193 2.81401,-32.37281 2.1105,-21.936 2.11051,-19.6133 2.1105,-17.04001 1.407,-9.82144 1.407,-8.52443 1.40701,-7.179 1.407,-5.79277 1.407,-4.37363 0.70351,-1.64655 0.7035,-1.283085 0.7035,-0.917792 0.7035,-0.551197 0.7035,-0.18382 0.7035,0.18382 0.7035,0.551197 0.7035,0.917792 0.70351,1.283085 0.7035,1.64655 0.7035,2.00768 1.407,5.08681 1.407,6.4905 1.40701,7.8573 1.407,9.17946 1.407,10.44945 2.11051,17.92365 2.1105,20.41692 2.1105,22.64931 2.81401,33.16785 2.81401,35.86639 4.221,57.06645 8.44202,115.12656 2.81401,35.47173 2.814,32.64299 2.11051,22.17728 2.1105,19.88434 2.11051,17.3373 1.407,10.03237 1.407,8.74417 1.407,7.40629 1.40701,6.02631 1.407,4.6121 0.7035,1.76721 0.7035,1.40446 0.7035,1.03973 0.7035,0.67351 0.70351,0.30633 0.7035,-0.0613 0.7035,-0.4288 0.7035,-0.79571 0.7035,-1.16149 0.7035,-1.52563 0.7035,-1.8876 1.40701,-4.84983 1.407,-6.2589 1.407,-7.6324 1.407,-8.96252 1.40699,-10.24172 2.1105,-17.63187 2.1105,-20.15222 2.1105,-22.41507 2.814,-32.90801 2.814,-35.67189 4.221,-56.90637 0.7036,-9.70923 0.7035,-278.196354 0.7035,0.18382 0.7035,0.551197 0.7035,0.917792 0.7035,1.283085 0.7035,1.64655 0.7035,2.00768 1.407,5.08681 1.407,6.4905 1.407,7.8573 1.407,9.17946 1.407,10.44945 2.1105,17.92365 2.1105,20.41692 2.1105,22.64931 2.814,33.16785 2.814,35.86639 4.221,57.06645 8.442,115.12656 2.814,35.47173 2.814,32.64299 2.1105,22.17728 2.1105,19.88434 2.1105,17.3373 1.4071,10.03237 1.407,8.74417 1.407,7.40629 1.407,6.02631 1.407,4.6121 0.7035,1.76721 0.7035,1.40446 0.7035,1.03973 0.7035,0.67351 0.7035,0.30633 0.7035,-0.0613 0.7035,-0.4288 0.7035,-0.79571 0.7035,-1.16149 0.7035,-1.52563 0.7035,-1.8876 1.407,-4.84983 1.407,-6.2589 1.407,-7.6324 1.407,-8.96252 1.407,-10.24172 2.1105,-17.63187 2.1105,-20.15222 2.1105,-22.41507 2.814,-32.90801 2.814,-35.67189 4.221,-56.90637 8.442,-115.30022 2.814,-35.67189 2.8141,-32.90801 2.1105,-22.41507 2.1105,-20.15221 2.1105,-17.63188 1.407,-10.24172 1.407,-8.96252 1.407,-7.63239 1.407,-6.2589 1.407,-4.84984 0.7035,-1.88759 0.7035,-1.52563 0.7035,-1.161498 0.7035,-0.795713 0.7035,-0.4288 0.7035,-0.06128 0.7035,0.306333 0.7035,0.673509 0.7035,1.039729 0.7035,1.40447 0.7035,1.76721 0.7035,2.12744 1.407,5.32299 1.407,6.72107 1.407,8.08097 1.407,9.39494 1.407,10.65554 2.1105,18.2126 2.1105,20.6784 2.1105,22.87998 2.814,33.42244 2.814,36.05524 4.221,57.21751 7.7386,105.75876 3.5175,44.44194 2.814,32.3728 2.1105,21.936 2.1105,19.61331 2.1105,17.04 1.407,9.82144 1.407,8.52443 1.407,7.179 1.407,5.79278 1.407,4.37363 0.7035,1.64654 0.7035,1.28309 0.7035,0.91779 0.7035,0.5512 0.7035,0.18382 0.7035,-0.18382 0.7035,-0.5512 0.7035,-0.91779 0.7035,-1.28309 0.7035,-1.64654 0.7035,-2.00768 1.407,-5.08682 1.407,-6.49049 1.407,-7.85731 1.407,-9.17945 1.407,-10.44946 2.1105,-17.92365 2.1105,-20.41692 2.1105,-22.64931 2.814,-33.16784 2.814,-35.8664 4.2211,-57.06645 8.442,-115.12655 2.814,-35.47174 2.814,-32.64299 2.1105,-22.17728 2.1105,-19.88433 2.1105,-17.33731 1.407,-10.03237 1.407,-8.74417 v 0"
         clip-path="url(#p4e8f467822)"
         style="fill:none;stroke:#ff7f0e;stroke-width:1.5;stroke-linecap:square"
         id="path377" />
    </g>
    <g
       id="patch_3"
       transform="translate(-4.5)">
      <path
         d="M 172.8,624.78 V 84.24"
         style="fill:none;stroke:#000000;stroke-width:0.8;stroke-linecap:square;stroke-linejoin:miter"
         id="path380" />
    </g>
    <g
       id="patch_4"
       transform="translate(-4.5)">
      <path
         d="M 1244.16,624.78 V 84.24"
         style="fill:none;stroke:#000000;stroke-width:0.8;stroke-linecap:square;stroke-linejoin:miter"
         id="path383" />
    </g>
    <g
       id="patch_5"
       transform="translate(-4.5)">
      <path
         d="M 172.8,624.78 H 1244.16"
         style="fill:none;stroke:#000000;stroke-width:0.8;stroke-linecap:square;stroke-linejoin:miter"
         id="path386" />
    </g>
    <g
       id="patch_6"
       transform="translate(-4.5)">
      <path
         d="M 172.8,84.24 H 1244.16"
         style="fill:none;stroke:#000000;stroke-width:0.8;stroke-linecap:square;stroke-linejoin:miter"
         id="path389" />
    </g>
    <path
       style="fill:none;stroke:#000000;stroke-width:2.0043;stroke-linecap:butt;stroke-linejoin:miter;stroke-miterlimit:4;stroke-dasharray:16.0344, 16.0344;stroke-dashoffset:0;stroke-opacity:1"
       d="m 432.75,88.416225 v 544.703455 0"
       id="path1306" />
    <path
       style="fill:none;stroke:#000000;stroke-width:2.0043;stroke-linecap:butt;stroke-linejoin:miter;stroke-miterlimit:4;stroke-dasharray:16.0344, 16.0344;stroke-dashoffset:0;stroke-opacity:1"
       d="m 718.03723,88.549871 v 544.703449 0"
       id="path1306-1" />
    <path
       style="fill:none;stroke:#000000;stroke-width:2.0043;stroke-linecap:butt;stroke-linejoin:miter;stroke-miterlimit:4;stroke-dasharray:16.0344, 16.0344;stroke-dashoffset:0;stroke-opacity:1"
       d="m 1013.5931,87.249339 v 544.703451 0"
       id="path1306-6" />
  </g>
</svg>
