<?xml version="1.0" encoding="UTF-8" standalone="no"?>
<svg
   width="1122.9069pt"
   height="570.87976pt"
   viewBox="0 0 1122.9068 570.87976"
   version="1.1"
   id="svg437"
   sodipodi:docname="phase_fram_fig1.svg"
   inkscape:version="1.1.1 (3bf5ae0d25, 2021-09-20)"
   xmlns:inkscape="http://www.inkscape.org/namespaces/inkscape"
   xmlns:sodipodi="http://sodipodi.sourceforge.net/DTD/sodipodi-0.dtd"
   xmlns:xlink="http://www.w3.org/1999/xlink"
   xmlns="http://www.w3.org/2000/svg"
   xmlns:svg="http://www.w3.org/2000/svg"
   xmlns:rdf="http://www.w3.org/1999/02/22-rdf-syntax-ns#"
   xmlns:cc="http://creativecommons.org/ns#"
   xmlns:dc="http://purl.org/dc/elements/1.1/">
  <sodipodi:namedview
     id="namedview439"
     pagecolor="#ffffff"
     bordercolor="#666666"
     borderopacity="1.0"
     inkscape:pageshadow="2"
     inkscape:pageopacity="0.0"
     inkscape:pagecheckerboard="0"
     inkscape:document-units="pt"
     showgrid="false"
     inkscape:zoom="0.57400173"
     inkscape:cx="789.19623"
     inkscape:cy="408.53536"
     inkscape:window-width="1920"
     inkscape:window-height="1017"
     inkscape:window-x="1912"
     inkscape:window-y="-8"
     inkscape:window-maximized="1"
     inkscape:current-layer="svg437" />
  <metadata
     id="metadata2">
    <rdf:RDF>
      <cc:Work>
        <dc:type
           rdf:resource="http://purl.org/dc/dcmitype/StillImage" />
        <dc:date>2022-09-19T11:34:22.044857</dc:date>
        <dc:format>image/svg+xml</dc:format>
        <dc:creator>
          <cc:Agent>
            <dc:title>Matplotlib v3.5.1, https://matplotlib.org/</dc:title>
          </cc:Agent>
        </dc:creator>
      </cc:Work>
    </rdf:RDF>
  </metadata>
  <defs
     id="defs6">
    <style
       type="text/css"
       id="style4">*{stroke-linejoin: round; stroke-linecap: butt}</style>
  </defs>
  <defs
     id="defs435">
    <clipPath
       id="pb2714e699d">
      <rect
         x="172.8"
         y="84.239998"
         width="1071.36"
         height="540.53998"
         id="rect432" />
    </clipPath>
  </defs>
  <g
     id="g2310">
    <g
       id="patch_2"
       transform="translate(-121.65312,-83.495524)">
      <path
         d="M 172.8,624.78 H 1244.16 V 84.24 H 172.8 Z"
         style="fill:#ffffff"
         id="path11" />
    </g>
    <g
       id="matplotlib.axis_1"
       transform="translate(-121.65312,-83.495524)">
      <g
         id="xtick_1">
        <g
           id="line2d_1">
          <defs
             id="defs15">
            <path
               id="m3a324346e1"
               d="M 0,0 V 3.5"
               style="stroke:#000000;stroke-width:0.8" />
          </defs>
          <g
             id="g19">
            <use
               xlink:href="#m3a324346e1"
               x="290.4852"
               y="624.78003"
               style="stroke:#000000;stroke-width:0.8"
               id="use17"
               width="100%"
               height="100%" />
          </g>
        </g>
        <g
           id="text_1">
          <!-- 600 -->
          <g
             transform="matrix(0.1,0,0,-0.1,280.94146,639.37844)"
             id="g32">
            <defs
               id="defs24">
              <path
                 id="DejaVuSans-36"
                 d="m 2113,2584 q -425,0 -674,-291 -248,-290 -248,-796 0,-503 248,-796 249,-292 674,-292 425,0 673,292 248,293 248,796 0,506 -248,796 -248,291 -673,291 z m 1253,1979 v -575 q -238,112 -480,171 -242,60 -480,60 -625,0 -955,-422 -329,-422 -376,-1275 184,272 462,417 279,145 613,145 703,0 1111,-427 408,-426 408,-1160 0,-719 -425,-1154 -425,-434 -1131,-434 -810,0 -1238,620 -428,621 -428,1799 0,1106 525,1764 525,658 1409,658 238,0 480,-47 242,-47 505,-140 z"
                 transform="scale(0.015625)" />
              <path
                 id="DejaVuSans-30"
                 d="m 2034,4250 q -487,0 -733,-480 -245,-479 -245,-1442 0,-959 245,-1439 246,-480 733,-480 491,0 736,480 246,480 246,1439 0,963 -246,1442 -245,480 -736,480 z m 0,500 q 785,0 1199,-621 414,-620 414,-1801 0,-1178 -414,-1799 -414,-620 -1199,-620 -784,0 -1198,620 -414,621 -414,1799 0,1181 414,1801 414,621 1198,621 z"
                 transform="scale(0.015625)" />
            </defs>
            <use
               xlink:href="#DejaVuSans-36"
               id="use26"
               x="0"
               y="0"
               width="100%"
               height="100%" />
            <use
               xlink:href="#DejaVuSans-30"
               x="63.623047"
               id="use28"
               y="0"
               width="100%"
               height="100%" />
            <use
               xlink:href="#DejaVuSans-30"
               x="127.24609"
               id="use30"
               y="0"
               width="100%"
               height="100%" />
          </g>
        </g>
      </g>
      <g
         id="xtick_2">
        <g
           id="line2d_2">
          <g
             id="g38">
            <use
               xlink:href="#m3a324346e1"
               x="472.18732"
               y="624.78003"
               style="stroke:#000000;stroke-width:0.8"
               id="use36"
               width="100%"
               height="100%" />
          </g>
        </g>
        <g
           id="text_2">
          <!-- 800 -->
          <g
             transform="matrix(0.1,0,0,-0.1,462.64358,639.37844)"
             id="g50">
            <defs
               id="defs42">
              <path
                 id="DejaVuSans-38"
                 d="m 2034,2216 q -450,0 -708,-241 -257,-241 -257,-662 0,-422 257,-663 258,-241 708,-241 450,0 709,242 260,243 260,662 0,421 -258,662 -257,241 -711,241 z m -631,268 q -406,100 -633,378 -226,279 -226,679 0,559 398,884 399,325 1092,325 697,0 1094,-325 397,-325 397,-884 0,-400 -227,-679 -226,-278 -629,-378 456,-106 710,-416 255,-309 255,-755 Q 3634,634 3220,271 2806,-91 2034,-91 1263,-91 848,271 434,634 434,1313 q 0,446 256,755 257,310 713,416 z m -231,997 q 0,-362 226,-565 227,-203 636,-203 407,0 636,203 230,203 230,565 0,363 -230,566 -229,203 -636,203 -409,0 -636,-203 -226,-203 -226,-566 z"
                 transform="scale(0.015625)" />
            </defs>
            <use
               xlink:href="#DejaVuSans-38"
               id="use44"
               x="0"
               y="0"
               width="100%"
               height="100%" />
            <use
               xlink:href="#DejaVuSans-30"
               x="63.623047"
               id="use46"
               y="0"
               width="100%"
               height="100%" />
            <use
               xlink:href="#DejaVuSans-30"
               x="127.24609"
               id="use48"
               y="0"
               width="100%"
               height="100%" />
          </g>
        </g>
      </g>
      <g
         id="xtick_3">
        <g
           id="line2d_3">
          <g
             id="g56">
            <use
               xlink:href="#m3a324346e1"
               x="653.88947"
               y="624.78003"
               style="stroke:#000000;stroke-width:0.8"
               id="use54"
               width="100%"
               height="100%" />
          </g>
        </g>
        <g
           id="text_3">
          <!-- 1000 -->
          <g
             transform="matrix(0.1,0,0,-0.1,641.16444,639.37844)"
             id="g70">
            <defs
               id="defs60">
              <path
                 id="DejaVuSans-31"
                 d="M 794,531 H 1825 V 4091 L 703,3866 v 575 l 1116,225 h 631 V 531 H 3481 V 0 H 794 Z"
                 transform="scale(0.015625)" />
            </defs>
            <use
               xlink:href="#DejaVuSans-31"
               id="use62"
               x="0"
               y="0"
               width="100%"
               height="100%" />
            <use
               xlink:href="#DejaVuSans-30"
               x="63.623047"
               id="use64"
               y="0"
               width="100%"
               height="100%" />
            <use
               xlink:href="#DejaVuSans-30"
               x="127.24609"
               id="use66"
               y="0"
               width="100%"
               height="100%" />
            <use
               xlink:href="#DejaVuSans-30"
               x="190.86914"
               id="use68"
               y="0"
               width="100%"
               height="100%" />
          </g>
        </g>
      </g>
      <g
         id="xtick_4">
        <g
           id="line2d_4">
          <g
             id="g76">
            <use
               xlink:href="#m3a324346e1"
               x="835.59155"
               y="624.78003"
               style="stroke:#000000;stroke-width:0.8"
               id="use74"
               width="100%"
               height="100%" />
          </g>
        </g>
        <g
           id="text_4">
          <!-- 1200 -->
          <g
             transform="matrix(0.1,0,0,-0.1,822.86656,639.37844)"
             id="g90">
            <defs
               id="defs80">
              <path
                 id="DejaVuSans-32"
                 d="M 1228,531 H 3431 V 0 H 469 v 531 q 359,372 979,998 621,627 780,809 303,340 423,576 121,236 121,464 0,372 -261,606 -261,235 -680,235 -297,0 -627,-103 -329,-103 -704,-313 v 638 q 381,153 712,231 332,78 607,78 725,0 1156,-363 431,-362 431,-968 0,-288 -108,-546 -107,-257 -392,-607 -78,-91 -497,-524 Q 1991,1309 1228,531 Z"
                 transform="scale(0.015625)" />
            </defs>
            <use
               xlink:href="#DejaVuSans-31"
               id="use82"
               x="0"
               y="0"
               width="100%"
               height="100%" />
            <use
               xlink:href="#DejaVuSans-32"
               x="63.623047"
               id="use84"
               y="0"
               width="100%"
               height="100%" />
            <use
               xlink:href="#DejaVuSans-30"
               x="127.24609"
               id="use86"
               y="0"
               width="100%"
               height="100%" />
            <use
               xlink:href="#DejaVuSans-30"
               x="190.86914"
               id="use88"
               y="0"
               width="100%"
               height="100%" />
          </g>
        </g>
      </g>
      <g
         id="xtick_5">
        <g
           id="line2d_5">
          <g
             id="g96">
            <use
               xlink:href="#m3a324346e1"
               x="1017.2937"
               y="624.78003"
               style="stroke:#000000;stroke-width:0.8"
               id="use94"
               width="100%"
               height="100%" />
          </g>
        </g>
        <g
           id="text_5">
          <!-- 1400 -->
          <g
             transform="matrix(0.1,0,0,-0.1,1004.5687,639.37844)"
             id="g110">
            <defs
               id="defs100">
              <path
                 id="DejaVuSans-34"
                 d="M 2419,4116 825,1625 h 1594 z m -166,550 h 794 V 1625 h 666 V 1100 H 3047 V 0 H 2419 V 1100 H 313 v 609 z"
                 transform="scale(0.015625)" />
            </defs>
            <use
               xlink:href="#DejaVuSans-31"
               id="use102"
               x="0"
               y="0"
               width="100%"
               height="100%" />
            <use
               xlink:href="#DejaVuSans-34"
               x="63.623047"
               id="use104"
               y="0"
               width="100%"
               height="100%" />
            <use
               xlink:href="#DejaVuSans-30"
               x="127.24609"
               id="use106"
               y="0"
               width="100%"
               height="100%" />
            <use
               xlink:href="#DejaVuSans-30"
               x="190.86914"
               id="use108"
               y="0"
               width="100%"
               height="100%" />
          </g>
        </g>
      </g>
      <g
         id="xtick_6">
        <g
           id="line2d_6">
          <g
             id="g116">
            <use
               xlink:href="#m3a324346e1"
               x="1198.9958"
               y="624.78003"
               style="stroke:#000000;stroke-width:0.8"
               id="use114"
               width="100%"
               height="100%" />
          </g>
        </g>
        <g
           id="text_6">
          <!-- 1600 -->
          <g
             transform="matrix(0.1,0,0,-0.1,1186.2708,639.37844)"
             id="g127">
            <use
               xlink:href="#DejaVuSans-31"
               id="use119"
               x="0"
               y="0"
               width="100%"
               height="100%" />
            <use
               xlink:href="#DejaVuSans-36"
               x="63.623047"
               id="use121"
               y="0"
               width="100%"
               height="100%" />
            <use
               xlink:href="#DejaVuSans-30"
               x="127.24609"
               id="use123"
               y="0"
               width="100%"
               height="100%" />
            <use
               xlink:href="#DejaVuSans-30"
               x="190.86914"
               id="use125"
               y="0"
               width="100%"
               height="100%" />
          </g>
        </g>
      </g>
      <g
         id="text_7">
        <!-- Time [ns] -->
        <g
           transform="matrix(0.1,0,0,-0.1,684.98234,653.05656)"
           id="g160">
          <defs
             id="defs140">
            <path
               id="DejaVuSans-54"
               d="M -19,4666 H 3928 V 4134 H 2272 V 0 H 1638 V 4134 H -19 Z"
               transform="scale(0.015625)" />
            <path
               id="DejaVuSans-69"
               d="m 603,3500 h 575 V 0 H 603 Z m 0,1363 h 575 V 4134 H 603 Z"
               transform="scale(0.015625)" />
            <path
               id="DejaVuSans-6d"
               d="m 3328,2828 q 216,388 516,572 300,184 706,184 547,0 844,-383 297,-382 297,-1088 V 0 h -578 v 2094 q 0,503 -179,746 -178,244 -543,244 -447,0 -707,-297 -259,-296 -259,-809 V 0 h -578 v 2094 q 0,506 -178,748 -178,242 -550,242 -441,0 -701,-298 -259,-298 -259,-808 V 0 H 581 v 3500 h 578 v -544 q 197,322 472,475 275,153 653,153 382,0 649,-194 267,-193 395,-562 z"
               transform="scale(0.015625)" />
            <path
               id="DejaVuSans-65"
               d="M 3597,1894 V 1613 H 953 q 38,-594 358,-905 320,-311 892,-311 331,0 642,81 311,81 618,244 V 178 Q 3153,47 2828,-22 2503,-91 2169,-91 1331,-91 842,396 353,884 353,1716 q 0,859 464,1363 464,505 1252,505 706,0 1117,-455 411,-454 411,-1235 z m -575,169 q -6,471 -264,752 -258,282 -683,282 -481,0 -770,-272 -289,-272 -333,-766 z"
               transform="scale(0.015625)" />
            <path
               id="DejaVuSans-20"
               transform="scale(0.015625)"
               d="" />
            <path
               id="DejaVuSans-5b"
               d="M 550,4863 H 1875 V 4416 H 1125 V -397 h 750 V -844 H 550 Z"
               transform="scale(0.015625)" />
            <path
               id="DejaVuSans-6e"
               d="M 3513,2113 V 0 h -575 v 2094 q 0,497 -194,743 -194,247 -581,247 -466,0 -735,-297 -269,-296 -269,-809 V 0 H 581 v 3500 h 578 v -544 q 207,316 486,472 280,156 646,156 603,0 912,-373 310,-373 310,-1098 z"
               transform="scale(0.015625)" />
            <path
               id="DejaVuSans-73"
               d="m 2834,3397 v -544 q -243,125 -506,187 -262,63 -544,63 -428,0 -642,-131 -214,-131 -214,-394 0,-200 153,-314 153,-114 616,-217 l 197,-44 q 612,-131 870,-370 258,-239 258,-667 0,-488 -386,-773 Q 2250,-91 1575,-91 1294,-91 989,-36 684,19 347,128 v 594 q 319,-166 628,-249 309,-82 613,-82 406,0 624,139 219,139 219,392 0,234 -158,359 -157,125 -692,241 l -200,47 q -534,112 -772,345 -237,233 -237,639 0,494 350,762 350,269 994,269 318,0 599,-47 282,-46 519,-140 z"
               transform="scale(0.015625)" />
            <path
               id="DejaVuSans-5d"
               d="M 1947,4863 V -844 H 622 v 447 h 747 V 4416 H 622 v 447 z"
               transform="scale(0.015625)" />
          </defs>
          <use
             xlink:href="#DejaVuSans-54"
             id="use142"
             x="0"
             y="0"
             width="100%"
             height="100%" />
          <use
             xlink:href="#DejaVuSans-69"
             x="57.958984"
             id="use144"
             y="0"
             width="100%"
             height="100%" />
          <use
             xlink:href="#DejaVuSans-6d"
             x="85.742188"
             id="use146"
             y="0"
             width="100%"
             height="100%" />
          <use
             xlink:href="#DejaVuSans-65"
             x="183.1543"
             id="use148"
             y="0"
             width="100%"
             height="100%" />
          <use
             xlink:href="#DejaVuSans-20"
             x="244.67773"
             id="use150"
             y="0"
             width="100%"
             height="100%" />
          <use
             xlink:href="#DejaVuSans-5b"
             x="276.46484"
             id="use152"
             y="0"
             width="100%"
             height="100%" />
          <use
             xlink:href="#DejaVuSans-6e"
             x="315.47852"
             id="use154"
             y="0"
             width="100%"
             height="100%" />
          <use
             xlink:href="#DejaVuSans-73"
             x="378.85742"
             id="use156"
             y="0"
             width="100%"
             height="100%" />
          <use
             xlink:href="#DejaVuSans-5d"
             x="430.95703"
             id="use158"
             y="0"
             width="100%"
             height="100%" />
        </g>
      </g>
    </g>
    <g
       id="matplotlib.axis_2"
       transform="translate(-121.65312,-83.495524)">
      <g
         id="ytick_1">
        <g
           id="line2d_7">
          <defs
             id="defs165">
            <path
               id="m82c2b61793"
               d="M 0,0 H -3.5"
               style="stroke:#000000;stroke-width:0.8" />
          </defs>
          <g
             id="g169">
            <use
               xlink:href="#m82c2b61793"
               x="172.8"
               y="610.29456"
               style="stroke:#000000;stroke-width:0.8"
               id="use167"
               width="100%"
               height="100%" />
          </g>
        </g>
        <g
           id="text_8">
          <!-- −0.20 -->
          <g
             transform="matrix(0.1,0,0,-0.1,135.15469,614.09379)"
             id="g186">
            <defs
               id="defs174">
              <path
                 id="DejaVuSans-2212"
                 d="M 678,2272 H 4684 V 1741 H 678 Z"
                 transform="scale(0.015625)" />
              <path
                 id="DejaVuSans-2e"
                 d="m 684,794 h 660 V 0 H 684 Z"
                 transform="scale(0.015625)" />
            </defs>
            <use
               xlink:href="#DejaVuSans-2212"
               id="use176"
               x="0"
               y="0"
               width="100%"
               height="100%" />
            <use
               xlink:href="#DejaVuSans-30"
               x="83.789062"
               id="use178"
               y="0"
               width="100%"
               height="100%" />
            <use
               xlink:href="#DejaVuSans-2e"
               x="147.41211"
               id="use180"
               y="0"
               width="100%"
               height="100%" />
            <use
               xlink:href="#DejaVuSans-32"
               x="179.19922"
               id="use182"
               y="0"
               width="100%"
               height="100%" />
            <use
               xlink:href="#DejaVuSans-30"
               x="242.82227"
               id="use184"
               y="0"
               width="100%"
               height="100%" />
          </g>
        </g>
      </g>
      <g
         id="ytick_2">
        <g
           id="line2d_8">
          <g
             id="g192">
            <use
               xlink:href="#m82c2b61793"
               x="172.8"
               y="546.51196"
               style="stroke:#000000;stroke-width:0.8"
               id="use190"
               width="100%"
               height="100%" />
          </g>
        </g>
        <g
           id="text_9">
          <!-- −0.15 -->
          <g
             transform="matrix(0.1,0,0,-0.1,135.15469,550.31119)"
             id="g208">
            <defs
               id="defs196">
              <path
                 id="DejaVuSans-35"
                 d="M 691,4666 H 3169 V 4134 H 1269 V 2991 q 137,47 274,70 138,23 276,23 781,0 1237,-428 457,-428 457,-1159 Q 3513,744 3044,326 2575,-91 1722,-91 1428,-91 1123,-41 819,9 494,109 v 635 q 281,-153 581,-228 300,-75 634,-75 541,0 856,284 316,284 316,772 0,487 -316,771 -315,285 -856,285 -253,0 -505,-56 -251,-56 -513,-175 z"
                 transform="scale(0.015625)" />
            </defs>
            <use
               xlink:href="#DejaVuSans-2212"
               id="use198"
               x="0"
               y="0"
               width="100%"
               height="100%" />
            <use
               xlink:href="#DejaVuSans-30"
               x="83.789062"
               id="use200"
               y="0"
               width="100%"
               height="100%" />
            <use
               xlink:href="#DejaVuSans-2e"
               x="147.41211"
               id="use202"
               y="0"
               width="100%"
               height="100%" />
            <use
               xlink:href="#DejaVuSans-31"
               x="179.19922"
               id="use204"
               y="0"
               width="100%"
               height="100%" />
            <use
               xlink:href="#DejaVuSans-35"
               x="242.82227"
               id="use206"
               y="0"
               width="100%"
               height="100%" />
          </g>
        </g>
      </g>
      <g
         id="ytick_3">
        <g
           id="line2d_9">
          <g
             id="g214">
            <use
               xlink:href="#m82c2b61793"
               x="172.8"
               y="482.72937"
               style="stroke:#000000;stroke-width:0.8"
               id="use212"
               width="100%"
               height="100%" />
          </g>
        </g>
        <g
           id="text_10">
          <!-- −0.10 -->
          <g
             transform="matrix(0.1,0,0,-0.1,135.15469,486.5286)"
             id="g227">
            <use
               xlink:href="#DejaVuSans-2212"
               id="use217"
               x="0"
               y="0"
               width="100%"
               height="100%" />
            <use
               xlink:href="#DejaVuSans-30"
               x="83.789062"
               id="use219"
               y="0"
               width="100%"
               height="100%" />
            <use
               xlink:href="#DejaVuSans-2e"
               x="147.41211"
               id="use221"
               y="0"
               width="100%"
               height="100%" />
            <use
               xlink:href="#DejaVuSans-31"
               x="179.19922"
               id="use223"
               y="0"
               width="100%"
               height="100%" />
            <use
               xlink:href="#DejaVuSans-30"
               x="242.82227"
               id="use225"
               y="0"
               width="100%"
               height="100%" />
          </g>
        </g>
      </g>
      <g
         id="ytick_4">
        <g
           id="line2d_10">
          <g
             id="g233">
            <use
               xlink:href="#m82c2b61793"
               x="172.8"
               y="418.94678"
               style="stroke:#000000;stroke-width:0.8"
               id="use231"
               width="100%"
               height="100%" />
          </g>
        </g>
        <g
           id="text_11">
          <!-- −0.05 -->
          <g
             transform="matrix(0.1,0,0,-0.1,135.15469,422.746)"
             id="g246">
            <use
               xlink:href="#DejaVuSans-2212"
               id="use236"
               x="0"
               y="0"
               width="100%"
               height="100%" />
            <use
               xlink:href="#DejaVuSans-30"
               x="83.789062"
               id="use238"
               y="0"
               width="100%"
               height="100%" />
            <use
               xlink:href="#DejaVuSans-2e"
               x="147.41211"
               id="use240"
               y="0"
               width="100%"
               height="100%" />
            <use
               xlink:href="#DejaVuSans-30"
               x="179.19922"
               id="use242"
               y="0"
               width="100%"
               height="100%" />
            <use
               xlink:href="#DejaVuSans-35"
               x="242.82227"
               id="use244"
               y="0"
               width="100%"
               height="100%" />
          </g>
        </g>
      </g>
      <g
         id="ytick_5">
        <g
           id="line2d_11">
          <g
             id="g252">
            <use
               xlink:href="#m82c2b61793"
               x="172.8"
               y="355.16418"
               style="stroke:#000000;stroke-width:0.8"
               id="use250"
               width="100%"
               height="100%" />
          </g>
        </g>
        <g
           id="text_12">
          <!-- 0.00 -->
          <g
             transform="matrix(0.1,0,0,-0.1,143.53437,358.9634)"
             id="g263">
            <use
               xlink:href="#DejaVuSans-30"
               id="use255"
               x="0"
               y="0"
               width="100%"
               height="100%" />
            <use
               xlink:href="#DejaVuSans-2e"
               x="63.623047"
               id="use257"
               y="0"
               width="100%"
               height="100%" />
            <use
               xlink:href="#DejaVuSans-30"
               x="95.410156"
               id="use259"
               y="0"
               width="100%"
               height="100%" />
            <use
               xlink:href="#DejaVuSans-30"
               x="159.0332"
               id="use261"
               y="0"
               width="100%"
               height="100%" />
          </g>
        </g>
      </g>
      <g
         id="ytick_6">
        <g
           id="line2d_12">
          <g
             id="g269">
            <use
               xlink:href="#m82c2b61793"
               x="172.8"
               y="291.38159"
               style="stroke:#000000;stroke-width:0.8"
               id="use267"
               width="100%"
               height="100%" />
          </g>
        </g>
        <g
           id="text_13">
          <!-- 0.05 -->
          <g
             transform="matrix(0.1,0,0,-0.1,143.53437,295.1808)"
             id="g280">
            <use
               xlink:href="#DejaVuSans-30"
               id="use272"
               x="0"
               y="0"
               width="100%"
               height="100%" />
            <use
               xlink:href="#DejaVuSans-2e"
               x="63.623047"
               id="use274"
               y="0"
               width="100%"
               height="100%" />
            <use
               xlink:href="#DejaVuSans-30"
               x="95.410156"
               id="use276"
               y="0"
               width="100%"
               height="100%" />
            <use
               xlink:href="#DejaVuSans-35"
               x="159.0332"
               id="use278"
               y="0"
               width="100%"
               height="100%" />
          </g>
        </g>
      </g>
      <g
         id="ytick_7">
        <g
           id="line2d_13">
          <g
             id="g286">
            <use
               xlink:href="#m82c2b61793"
               x="172.8"
               y="227.59898"
               style="stroke:#000000;stroke-width:0.8"
               id="use284"
               width="100%"
               height="100%" />
          </g>
        </g>
        <g
           id="text_14">
          <!-- 0.10 -->
          <g
             transform="matrix(0.1,0,0,-0.1,143.53437,231.3982)"
             id="g297">
            <use
               xlink:href="#DejaVuSans-30"
               id="use289"
               x="0"
               y="0"
               width="100%"
               height="100%" />
            <use
               xlink:href="#DejaVuSans-2e"
               x="63.623047"
               id="use291"
               y="0"
               width="100%"
               height="100%" />
            <use
               xlink:href="#DejaVuSans-31"
               x="95.410156"
               id="use293"
               y="0"
               width="100%"
               height="100%" />
            <use
               xlink:href="#DejaVuSans-30"
               x="159.0332"
               id="use295"
               y="0"
               width="100%"
               height="100%" />
          </g>
        </g>
      </g>
      <g
         id="ytick_8">
        <g
           id="line2d_14">
          <g
             id="g303">
            <use
               xlink:href="#m82c2b61793"
               x="172.8"
               y="163.81639"
               style="stroke:#000000;stroke-width:0.8"
               id="use301"
               width="100%"
               height="100%" />
          </g>
        </g>
        <g
           id="text_15">
          <!-- 0.15 -->
          <g
             transform="matrix(0.1,0,0,-0.1,143.53437,167.6156)"
             id="g314">
            <use
               xlink:href="#DejaVuSans-30"
               id="use306"
               x="0"
               y="0"
               width="100%"
               height="100%" />
            <use
               xlink:href="#DejaVuSans-2e"
               x="63.623047"
               id="use308"
               y="0"
               width="100%"
               height="100%" />
            <use
               xlink:href="#DejaVuSans-31"
               x="95.410156"
               id="use310"
               y="0"
               width="100%"
               height="100%" />
            <use
               xlink:href="#DejaVuSans-35"
               x="159.0332"
               id="use312"
               y="0"
               width="100%"
               height="100%" />
          </g>
        </g>
      </g>
      <g
         id="ytick_9">
        <g
           id="line2d_15">
          <g
             id="g320">
            <use
               xlink:href="#m82c2b61793"
               x="172.8"
               y="100.03378"
               style="stroke:#000000;stroke-width:0.8"
               id="use318"
               width="100%"
               height="100%" />
          </g>
        </g>
        <g
           id="text_16">
          <!-- 0.20 -->
          <g
             transform="matrix(0.1,0,0,-0.1,143.53437,103.83301)"
             id="g331">
            <use
               xlink:href="#DejaVuSans-30"
               id="use323"
               x="0"
               y="0"
               width="100%"
               height="100%" />
            <use
               xlink:href="#DejaVuSans-2e"
               x="63.623047"
               id="use325"
               y="0"
               width="100%"
               height="100%" />
            <use
               xlink:href="#DejaVuSans-32"
               x="95.410156"
               id="use327"
               y="0"
               width="100%"
               height="100%" />
            <use
               xlink:href="#DejaVuSans-30"
               x="159.0332"
               id="use329"
               y="0"
               width="100%"
               height="100%" />
          </g>
        </g>
      </g>
      <g
         id="text_17">
        <!-- Output -->
        <g
           transform="matrix(0,-0.1,-0.1,0,129.075,371.87797)"
           id="g353">
          <defs
             id="defs339">
            <path
               id="DejaVuSans-4f"
               d="m 2522,4238 q -688,0 -1093,-513 -404,-512 -404,-1397 0,-881 404,-1394 405,-512 1093,-512 687,0 1089,512 402,513 402,1394 0,885 -402,1397 -402,513 -1089,513 z m 0,512 q 981,0 1568,-658 588,-658 588,-1764 0,-1103 -588,-1761 -587,-658 -1568,-658 -984,0 -1574,656 -589,657 -589,1763 0,1106 589,1764 590,658 1574,658 z"
               transform="scale(0.015625)" />
            <path
               id="DejaVuSans-75"
               d="m 544,1381 v 2119 h 575 V 1403 q 0,-497 193,-746 194,-248 582,-248 465,0 735,297 271,297 271,810 v 1984 h 575 V 0 H 2900 V 538 Q 2691,219 2414,64 2138,-91 1772,-91 1169,-91 856,284 544,659 544,1381 Z m 1447,2203 z"
               transform="scale(0.015625)" />
            <path
               id="DejaVuSans-74"
               d="M 1172,4494 V 3500 H 2356 V 3053 H 1172 V 1153 q 0,-428 117,-550 117,-122 477,-122 h 590 V 0 H 1766 Q 1100,0 847,248 594,497 594,1153 V 3053 H 172 v 447 h 422 v 994 z"
               transform="scale(0.015625)" />
            <path
               id="DejaVuSans-70"
               d="M 1159,525 V -1331 H 581 v 4831 h 578 v -531 q 182,312 458,463 277,152 661,152 638,0 1036,-506 399,-506 399,-1331 0,-825 -399,-1332 -398,-506 -1036,-506 -384,0 -661,152 -276,152 -458,464 z m 1957,1222 q 0,634 -261,995 -261,361 -717,361 -457,0 -718,-361 -261,-361 -261,-995 0,-634 261,-995 261,-361 718,-361 456,0 717,361 261,361 261,995 z"
               transform="scale(0.015625)" />
          </defs>
          <use
             xlink:href="#DejaVuSans-4f"
             id="use341"
             x="0"
             y="0"
             width="100%"
             height="100%" />
          <use
             xlink:href="#DejaVuSans-75"
             x="78.710938"
             id="use343"
             y="0"
             width="100%"
             height="100%" />
          <use
             xlink:href="#DejaVuSans-74"
             x="142.08984"
             id="use345"
             y="0"
             width="100%"
             height="100%" />
          <use
             xlink:href="#DejaVuSans-70"
             x="181.29883"
             id="use347"
             y="0"
             width="100%"
             height="100%" />
          <use
             xlink:href="#DejaVuSans-75"
             x="244.77539"
             id="use349"
             y="0"
             width="100%"
             height="100%" />
          <use
             xlink:href="#DejaVuSans-74"
             x="308.1543"
             id="use351"
             y="0"
             width="100%"
             height="100%" />
        </g>
      </g>
    </g>
    <g
       id="line2d_16"
       transform="translate(-121.65312,-83.495524)">
      <path
         d="m 172.37884,578.73665 1.81702,-9.89361 1.81702,-11.10778 1.81702,-12.25882 2.72553,-20.39239 2.72553,-22.56352 2.72554,-24.44635 3.63404,-34.98111 4.54255,-46.4352 12.71915,-132.42519 3.63404,-34.77822 2.72553,-24.25216 2.72553,-22.33605 2.72554,-20.13452 1.81702,-12.07165 1.81702,-10.90962 1.81702,-9.68559 1.81702,-8.40653 1.81702,-7.07971 1.81702,-5.71265 0.90851,-2.33323 0.90851,-1.9799 0.90851,-1.62378 0.90852,-1.26533 0.90851,-0.9051 0.90851,-0.54358 0.90851,-0.18127 0.90851,0.18127 0.90851,0.54358 0.90851,0.9051 0.90851,1.26533 0.90851,1.62378 0.90851,1.9799 0.90851,2.33323 1.81702,5.71265 1.81702,7.07971 1.81702,8.40653 1.81703,9.68559 1.81702,10.90962 1.81702,12.07165 2.72553,20.13452 2.72553,22.33605 2.72553,24.25216 3.63405,34.77822 4.54255,46.2778 13.62766,141.54689 3.63404,34.35597 2.72553,23.85234 2.72553,21.87054 2.72553,19.60931 1.81703,11.6916 1.81702,10.50816 1.81702,9.265 1.81702,7.9692 1.81702,6.62811 1.81702,5.24937 0.90851,2.09802 0.90851,1.74276 0.90851,1.38504 0.90851,1.02535 0.90851,0.66419 0.90851,0.3021 0.90852,-0.0604 0.90851,-0.42287 0.90851,-0.7847 0.90851,-1.14544 0.90851,-1.50452 0.90851,-1.86149 0.90851,-2.2158 0.90851,-2.56696 1.81702,-6.17233 1.81702,-7.52683 1.81702,-8.83856 1.81702,-10.10006 1.81703,-11.30418 1.81702,-12.44407 2.72553,-20.64703 2.72553,-22.78743 2.72553,-24.63667 3.63404,-35.1785 4.54256,-46.58527 11.81063,-123.23949 3.63405,-35.1785 2.72553,-24.63667 2.72553,-22.78743 2.72553,-20.64703 1.81702,-12.44407 1.81702,-11.30418 1.81703,-10.10006 1.81702,-8.83856 1.81702,-7.52683 1.81702,-6.17233 0.90851,-2.56696 0.90851,-2.2158 0.90851,-1.86149 0.90851,-1.50452 0.90851,-1.14544 0.90851,-0.7847 0.90851,-0.42287 0.90851,-0.0604 0.90851,0.3021 0.90851,0.66419 0.90852,1.02535 0.90851,1.38504 0.90851,1.74276 0.90851,2.09802 0.90851,2.45029 1.81702,5.94296 1.81702,7.30385 1.81702,8.62322 1.81702,9.89361 1.81702,11.10778 1.81702,12.25882 2.72554,20.39239 2.72553,22.56352 2.72553,24.44635 3.63404,34.98112 4.54256,46.4352 12.71914,132.42518 3.63405,34.77822 2.72553,24.25216 2.72553,22.33605 2.72553,20.13452 1.81702,12.07165 1.81702,10.90962 1.81702,9.68559 1.81703,8.40653 1.81702,7.07971 1.81702,5.71265 0.90851,2.33323 0.90851,1.9799 0.90851,1.62378 0.90851,1.26534 0.90851,0.90509 0.90851,0.54358 0.90851,0.18127 0.90851,-0.18127 0.90851,-0.54358 0.90851,-0.90509 0.90851,-1.26534 0.90851,-1.62378 0.90852,-1.9799 0.90851,-2.33323 1.81702,-5.71265 1.81702,-7.07971 1.81702,-8.40653 1.81702,-9.68559 1.81702,-10.90962 1.81702,-12.07165 2.72553,-20.13452 2.72554,-22.33605 2.72553,-24.25216 3.63404,-34.77822 4.54255,-46.2778 13.62766,-141.54689 3.63404,-34.35597 2.72554,-23.85234 2.72553,-21.87054 2.72553,-19.60931 1.81702,-11.6916 1.81702,-10.50816 1.81702,-9.265 1.81702,-7.9692 1.81702,-6.62811 1.81703,-5.24937 0.90851,-2.09802 0.90851,-1.74276 0.90851,-1.38504 0.90851,-1.02535 0.90851,-0.66419 0.90851,-0.3021 0.90851,0.0604 0.90851,0.42287 0.90851,0.7847 0.90851,1.14544 0.90851,1.50452 0.90851,1.86149 0.90851,2.2158 0.90851,2.56696 1.81703,6.17233 1.81702,7.52683 1.81702,8.83856 1.81702,10.10006 1.81702,11.30418 1.81702,12.44407 2.72553,20.64703 2.72553,22.78743 2.72554,24.63667 3.63404,35.1785 4.54255,46.58527 11.81064,123.23949 3.63404,35.1785 2.72553,24.63667 2.72553,22.78743 2.72554,20.64703 1.81702,12.44407 1.81702,11.30418 1.81702,10.10006 1.81702,8.83856 1.81702,7.52683 1.81702,6.17233 0.90851,2.56696 0.90852,2.2158 0.90851,1.86149 0.90851,1.50452 0.90851,1.14544 0.90851,0.7847 0.90851,0.42287 0.90851,0.0604 0.90851,-0.3021 0.90851,-0.66419 0.90851,-1.02535 0.90851,-1.38504 0.90851,-1.74276 0.90851,-2.09802 0.90851,-2.45029 1.81702,-5.94296 1.81702,-7.30384 1.81703,-8.62323 1.81702,-9.89361 1.81702,-11.10778 1.81702,-12.25882 2.72553,-20.39239 2.72553,-22.56352 2.72554,-24.44635 3.63404,-34.98111 4.54255,-46.4352 12.71915,-132.42519 3.63404,-34.77822 2.72553,-24.25216 2.72553,-22.33605 2.72553,-20.13452 1.81703,-12.07165 1.81702,-10.90962 1.81702,-9.68559 1.81702,-8.40653 1.81702,-7.07971 1.81702,-5.71265 0.90851,-2.33323 0.90851,-1.9799 0.90851,-1.62378 0.90851,-1.26533 0.90851,-0.9051 0.90852,-0.54358 0.90851,-0.18127 0.90851,0.18127 0.90851,0.54358 0.90851,0.9051 0.90851,1.26533 0.90851,1.62378 0.90851,1.9799 0.90851,2.33323 1.81702,5.71265 1.81702,7.07971 1.81702,8.40653 1.81702,9.68559 1.81703,10.90962 1.81702,12.07165 2.72553,20.13452 2.72553,22.33605 2.72553,24.25216 3.63404,34.77822 4.54256,46.2778 13.62766,141.54689 3.63404,34.35597 2.72553,23.85234 2.72553,21.87054 2.72553,19.60931 1.81702,11.6916 1.81703,10.50816 1.81702,9.265 1.81702,7.9692 1.81702,6.62811 1.81702,5.24937 0.90851,2.09802 0.90851,1.74276 0.90851,1.38504 0.90851,1.02535 0.90851,0.66419 0.90851,0.3021 0.90851,-0.0604 0.90851,-0.42287 0.90852,-0.7847 0.90851,-1.14544 0.90851,-1.50452 0.90851,-1.86149 0.90851,-2.2158 0.90851,-2.56696 1.81702,-6.17233 1.81702,-7.52683 1.81702,-8.83856 1.81702,-10.10006 1.81702,-11.30418 1.81703,-12.44407 2.72553,-20.64703 2.72553,-22.78743 2.72553,-24.63667 3.63404,-35.1785 4.54256,-46.58527 11.81063,-123.23949 3.63405,-35.1785 2.72553,-24.63667 2.72553,-22.78743 2.72553,-20.64703 1.81702,-12.44407 1.81702,-11.30418 1.81702,-10.10006 1.81703,-8.83856 1.81702,-7.52683 1.81702,-6.17233 0.90851,-2.56696 0.90851,-2.2158 0.90851,-1.86149 0.90851,-1.50452 0.90851,-1.14544 0.90851,-0.7847 0.90851,-0.42287 0.90851,-0.0604 0.90851,0.3021 0.90851,0.66419 0.90851,1.02535 0.90852,1.38504 0.90851,1.74276 0.90851,2.09802 0.90851,2.45029 1.81702,5.94296 1.81702,7.30385 1.81702,8.62322 1.81702,9.89361 1.81702,11.10778 1.81702,12.25882 2.72554,20.39239 2.72553,22.56352 2.72553,24.44635 3.63404,34.98112 4.54255,46.4352 12.71915,132.42518 3.63404,34.77822 2.72554,24.25216 2.72553,22.33605 2.72553,20.13452 1.81702,12.07165 1.81702,10.90962 1.81702,9.68559 1.81702,8.40653 1.81703,7.07971 1.81702,5.71265 0.90851,2.33323 0.90851,1.9799 0.90851,1.62378 0.90851,1.26534 0.90851,0.90509 0.90851,0.54358 0.90851,0.18127 0.90851,-0.18127 0.90851,-0.54358 0.90851,-0.90509 0.90851,-1.26534 0.90851,-1.62378 0.90851,-1.9799 0.90851,-2.33323 1.81703,-5.71265 1.81702,-7.07971 1.81702,-8.40653 1.81702,-9.68559 1.81702,-10.90962 1.81702,-12.07165 2.72553,-20.13452 2.72554,-22.33605 2.72553,-24.25216 3.63404,-34.77822 4.54255,-46.2778 13.62766,-141.54689 3.63404,-34.35597 2.72554,-23.85234 2.72553,-21.87054 2.72553,-19.60931 1.81702,-11.6916 1.81702,-10.50816 1.81702,-9.265 1.81702,-7.9692 1.81702,-6.62811 1.81702,-5.24937 0.90852,-2.09802 0.90851,-1.74276 0.90851,-1.38504 0.90851,-1.02535 0.90851,-0.66419 0.90851,-0.3021 0.90851,0.0604 0.90851,0.42287 0.90851,0.7847 0.90851,1.14544 0.90851,1.50452 0.90851,1.86149 0.90851,2.2158 0.90854,2.56696 1.817,6.17233 1.817,7.52683 1.817,8.83856 1.8171,10.10006 1.817,11.30418 1.817,12.44407 2.7255,20.64703 2.7256,22.78743 2.7255,24.63667 3.634,35.1785 4.5426,46.58527 11.8106,123.23949 3.6341,35.1785 2.7255,24.63667 2.7255,22.78743 2.7256,20.64703 1.817,12.44407 1.817,11.30418 1.817,10.10006 1.8171,8.83856 1.817,7.52683 1.817,6.17233 0.9085,2.56696 0.9085,2.2158 0.9085,1.86149 0.9085,1.50452 0.9085,1.14544 0.9086,0.7847 0.9085,0.42287 0.9085,0.0604 0.9085,-0.3021 0.9085,-0.66419 0.9085,-1.02535 0.9085,-1.38504 0.9085,-1.74276 0.9085,-2.09802 0.9086,-2.45029 1.817,-5.94296 1.817,-7.30384 1.817,-8.62323 1.817,-9.89361 1.8171,-11.10778 1.817,-12.25882 2.7255,-20.39239 2.7255,-22.56352 2.7256,-24.44635 3.634,-34.98111 4.5426,-46.4352 12.7191,-132.42519 3.6341,-34.77822 2.7255,-24.25216 2.7255,-22.33605 2.7256,-20.13452 1.817,-12.07165 1.817,-10.90962 1.817,-9.68559 1.817,-8.40653 1.8171,-7.07971 1.817,-5.71265 0.9085,-2.33323 0.9085,-1.9799 0.9085,-1.62378 0.9085,-1.26533 0.9085,-0.9051 0.9085,-0.54358 0.9086,-0.18127 0.9085,0.18127 0.9085,0.54358 0.9085,0.9051 0.9085,1.26533 0.9085,1.62378 0.9085,1.9799 0.9085,2.33323 1.8171,5.71265 1.817,7.07971 1.817,8.40653 1.817,9.68559 1.817,10.90962 1.8171,12.07165 2.7255,20.13452 2.7255,22.33605 2.7256,24.25216 3.634,34.77822 4.5425,46.2778 13.6277,141.54689 3.634,34.35597 2.7256,23.85234 2.7255,21.87054 2.7255,19.60931 1.8171,11.6916 1.817,10.50816 1.817,9.265 1.817,7.9692 1.817,6.62811 1.8171,5.24937 0.9085,2.09802 0.9085,1.74276 0.9085,1.38504 0.9085,1.02535 0.9085,0.66419 0.9085,0.3021 0.9085,-0.0604 0.9086,-0.42287 0.9085,-0.7847 0.9085,-1.14544 0.9085,-1.50452 0.9085,-1.86149 0.9085,-2.2158 0.9085,-2.56696 1.817,-6.17233 1.8171,-7.52683 1.817,-8.83856 1.817,-10.10006 1.817,-11.30418 1.817,-12.44407 2.7256,-20.64703 2.7255,-22.78743 0.9085,-8.02185 v 0"
         clip-path="url(#pb2714e699d)"
         style="fill:none;stroke:#1f77b4;stroke-width:1.5;stroke-linecap:square"
         id="path357" />
    </g>
    <g
       id="line2d_17"
       transform="translate(-121.65312,-83.495524)">
      <path
         d="m 172.37884,418.61253 6.35957,31.96001 4.54255,21.84443 4.54256,20.80369 3.63404,15.76917 3.63404,14.89511 3.63404,13.9364 3.63405,12.8985 2.72553,8.94844 2.72553,8.29466 2.72553,7.61436 2.72553,6.90973 2.72553,6.18299 2.72554,5.4365 1.81702,3.20093 1.81702,2.85684 1.81702,2.50867 1.81702,2.15695 1.81702,1.80216 1.81702,1.44482 1.81702,1.08541 1.81703,0.72446 1.81702,0.36249 h 1.81702 l 1.81702,-0.36249 1.81702,-0.72446 1.81702,-1.08541 1.81702,-1.44482 1.81702,-1.80216 1.81702,-2.15695 1.81703,-2.50867 1.81702,-2.85684 1.81702,-3.20093 1.81702,-3.54048 2.72553,-5.93624 2.72553,-6.66983 2.72553,-7.38207 2.72554,-8.07074 2.72553,-8.73359 2.72553,-9.36852 3.63404,-13.42699 3.63404,-14.42601 3.63405,-15.34304 4.54255,-20.33511 4.54255,-21.45092 5.45107,-26.94529 6.35957,-32.65981 10.90213,-57.47255 9.0851,-47.51923 6.35958,-32.08938 5.45106,-26.24672 4.54255,-20.72763 3.63405,-15.69969 3.63404,-14.81837 3.63404,-13.85286 3.63404,-12.80862 2.72553,-8.87717 2.72554,-8.22034 2.72553,-7.53723 2.72553,-6.83002 2.72553,-6.10099 2.72553,-5.35244 1.81702,-3.14388 1.81703,-2.79908 1.81702,-2.45029 1.81702,-2.09802 1.81702,-1.74276 1.81702,-1.38504 1.81702,-1.02535 1.81702,-0.66419 1.81702,-0.3021 1.81702,0.0604 1.81703,0.42287 1.81702,0.7847 1.81702,1.14544 1.81702,1.50452 1.81702,1.86149 1.81702,2.2158 1.81702,2.56696 1.81702,2.91448 1.81702,3.25785 1.81703,3.5966 2.72553,6.01873 2.72553,6.75006 2.72553,7.4598 2.72553,8.1457 2.72553,8.80555 2.72554,9.43726 3.63404,13.51324 3.63404,14.50563 3.63404,15.41559 4.54256,20.41523 4.54255,21.51864 5.45106,27.00934 6.35958,32.7098 11.81063,62.2927 9.08511,47.33044 5.45106,27.37116 5.45107,26.17112 4.54255,20.65075 3.63404,15.62959 3.63404,14.74106 3.63405,13.76876 3.63404,12.71823 2.72553,8.80555 2.72553,8.1457 2.72553,7.4598 2.72554,6.75006 2.72553,6.01873 1.81702,3.5966 1.81702,3.25785 1.81702,5.48144 0.90851,2.2158 0.90851,1.86149 0.90851,1.50452 0.90851,1.14544 0.90851,0.7847 0.90851,0.42287 0.90851,0.0604 0.90852,-0.3021 0.90851,-0.66419 0.90851,-1.02535 0.90851,-1.38504 0.90851,-1.74276 0.90851,-2.09802 0.90851,-2.45029 1.81702,-5.94296 1.81702,-7.30384 1.81702,-8.62323 1.81702,-9.89361 1.81703,-11.10778 1.81702,-12.25882 2.72553,-20.39239 2.72553,-22.56352 2.72553,-24.44635 3.63404,-34.98111 4.54256,-46.4352 12.71915,-132.42519 3.63404,-34.77822 2.72553,-24.25216 2.72553,-22.33605 2.72553,-20.13452 1.81702,-12.07165 1.81702,-10.90962 1.81703,-9.68559 1.81702,-8.40653 1.81702,-7.07971 1.81702,-5.71265 0.90851,-2.33323 0.90851,-1.9799 0.90851,-1.62378 0.90851,-1.26533 0.90851,-0.9051 0.90851,-0.54358 0.90851,-0.18127 0.90851,0.18127 0.90851,0.54358 0.90852,0.9051 0.90851,1.26533 0.90851,1.62378 0.90851,1.9799 0.90851,2.33323 1.81702,5.71265 1.81702,7.07971 1.81702,8.40653 1.81702,9.68559 1.81702,10.90962 1.81702,12.07165 2.72554,20.13452 2.72553,22.33605 2.72553,24.25216 3.63404,34.77822 4.54256,46.2778 13.62765,141.54689 3.63405,34.35597 2.72553,23.85234 2.72553,21.87054 2.72553,19.60931 1.81702,11.6916 1.81702,10.50816 1.81702,9.265 1.81702,7.9692 1.81703,6.62811 1.81702,5.24937 0.90851,2.09802 0.90851,1.74276 0.90851,1.38504 0.90851,1.02535 0.90851,0.66419 0.90851,0.3021 0.90851,-0.0604 0.90851,-0.42287 0.90851,-0.7847 0.90851,-1.14544 0.90851,-1.50452 0.90851,-1.86149 0.90851,-2.2158 0.90852,-2.56696 1.81702,-6.17233 1.81702,-7.52683 1.81702,-8.83856 1.81702,-10.10006 1.81702,-11.30418 1.81702,-12.44407 2.72553,-20.64703 2.72554,-22.78743 2.72553,-24.63667 3.63404,-35.1785 4.54255,-46.58527 11.81064,-123.23949 3.63404,-35.1785 2.72554,-24.63667 2.72553,-22.78743 2.72553,-20.64703 1.81702,-12.44407 1.81702,-11.30418 1.81702,-10.10006 1.81702,-8.83856 1.81702,-7.52683 1.81702,-6.17233 0.90852,-2.56696 0.90851,-2.2158 0.90851,-1.86149 0.90851,-1.50452 0.90851,-1.14544 0.90851,-0.7847 0.90851,-0.42287 0.90851,-0.0604 0.90851,0.3021 0.90851,0.66419 0.90851,1.02535 0.90851,1.38504 0.90851,1.74276 0.90851,2.09802 0.90851,2.45029 1.81702,5.94296 1.81703,7.30385 1.81702,8.62322 1.81702,9.89361 1.81702,11.10778 1.81702,12.25882 2.72553,20.39239 2.72553,22.56352 2.72554,24.44635 3.63404,34.98112 4.54255,46.4352 12.71915,132.42518 3.63404,34.77822 2.72553,24.25216 2.72553,22.33605 2.72554,20.13452 1.81702,12.07165 1.81702,10.90962 1.81702,9.68559 1.81702,8.40653 1.81702,7.07971 1.81702,5.71265 0.90851,2.33323 0.90851,1.9799 0.90851,1.62378 0.90852,1.26534 0.90851,0.90509 0.90851,0.54358 0.90851,0.18127 0.90851,-0.18127 0.90851,-0.54358 0.90851,-0.90509 0.90851,-1.26534 0.90851,-1.62378 0.90851,-1.9799 0.90851,-2.33323 1.81702,-5.71265 1.81702,-7.07971 1.81703,-8.40653 1.81702,-9.68559 1.81702,-10.90962 1.81702,-12.07165 2.72553,-20.13452 2.72553,-22.33605 2.72553,-24.25216 3.63405,-34.77822 4.54255,-46.2778 13.62766,-141.54689 3.63404,-34.35597 0.90851,-8.15265 0.90851,212.11889 3.63404,35.91216 3.63405,33.44666 2.72553,23.00774 2.72553,20.89841 1.81702,12.62734 1.81702,11.49881 1.81702,10.30492 1.81702,9.0525 1.81703,7.74862 1.81702,6.40073 0.90851,2.68323 0.90851,2.33323 0.90851,1.9799 0.90851,1.62378 0.90851,1.26534 0.90851,0.90509 0.90851,0.54358 0.90851,0.18127 0.90851,-0.18127 0.90851,-0.54358 0.90851,-0.90509 0.90851,-1.26534 0.90851,-1.62378 0.90851,-1.9799 0.90851,-2.33323 1.81703,-5.71265 1.81702,-7.07971 1.81702,-8.40653 1.81702,-9.68559 1.81702,-10.90962 1.81702,-12.07165 2.72553,-20.13452 2.72554,-22.33605 2.72553,-24.25216 3.63404,-34.77822 4.54255,-46.2778 13.62766,-141.54689 3.63404,-34.35597 2.72554,-23.85234 2.72553,-21.87054 2.72553,-19.60931 1.81702,-11.6916 1.81702,-10.50816 1.81702,-9.265 1.81702,-7.9692 1.81702,-6.62811 1.81702,-5.24937 0.90852,-2.09802 0.90851,-1.74276 0.90851,-1.38504 0.90851,-1.02535 0.90851,-0.66419 0.90851,-0.3021 0.90851,0.0604 0.90851,0.42287 0.90851,0.7847 0.90851,1.14544 0.90851,1.50452 0.90851,1.86149 0.90851,2.2158 0.90854,2.56696 1.817,6.17233 1.817,7.52683 1.817,8.83856 1.8171,10.10006 1.817,11.30418 1.817,12.44407 2.7255,20.64703 2.7256,22.78743 2.7255,24.63667 3.634,35.1785 4.5426,46.58527 11.8106,123.23949 3.6341,35.1785 2.7255,24.63667 2.7255,22.78743 2.7256,20.64703 1.817,12.44407 1.817,11.30418 1.817,10.10006 1.8171,8.83856 1.817,7.52683 1.817,6.17233 0.9085,2.56696 0.9085,2.2158 0.9085,1.86149 0.9085,1.50452 0.9085,1.14544 0.9086,0.7847 0.9085,0.42287 0.9085,0.0604 0.9085,-0.3021 0.9085,-0.66419 0.9085,-1.02535 0.9085,-1.38504 0.9085,-1.74276 0.9085,-2.09802 0.9086,-2.45029 1.817,-5.94296 1.817,-7.30384 1.817,-8.62323 1.817,-9.89361 1.8171,-11.10778 1.817,-12.25882 2.7255,-20.39239 2.7255,-22.56352 2.7256,-24.44635 3.634,-34.98111 4.5426,-46.4352 12.7191,-132.42519 3.6341,-34.77822 2.7255,-24.25216 2.7255,-22.33605 2.7256,-20.13452 1.817,-12.07165 1.817,-10.90962 1.817,-9.68559 1.817,-8.40653 1.8171,-7.07971 1.817,-5.71265 0.9085,-2.33323 0.9085,-1.9799 0.9085,-1.62378 0.9085,-1.26533 0.9085,-0.9051 0.9085,-0.54358 0.9086,-0.18127 0.9085,0.18127 0.9085,0.54358 0.9085,0.9051 0.9085,1.26533 0.9085,1.62378 0.9085,1.9799 0.9085,2.33323 1.8171,5.71265 1.817,7.07971 1.817,8.40653 1.817,9.68559 1.817,10.90962 1.8171,12.07165 2.7255,20.13452 2.7255,22.33605 2.7256,24.25216 3.634,34.77822 4.5425,46.2778 13.6277,141.54689 3.634,34.35597 2.7256,23.85234 2.7255,21.87054 2.7255,19.60931 1.8171,11.6916 1.817,10.50816 1.817,9.265 1.817,7.9692 1.817,6.62811 1.8171,5.24937 0.9085,2.09802 0.9085,1.74276 0.9085,1.38504 0.9085,1.02535 0.9085,0.66419 0.9085,0.3021 0.9085,-0.0604 0.9086,-0.42287 0.9085,-0.7847 0.9085,-1.14544 0.9085,-1.50452 0.9085,-1.86149 0.9085,-2.2158 0.9085,-2.56696 1.817,-6.17233 1.8171,-7.52683 1.817,-8.83856 1.817,-10.10006 1.817,-11.30418 1.817,-12.44407 2.7256,-20.64703 2.7255,-22.78743 0.9085,-8.02185 v 0"
         clip-path="url(#pb2714e699d)"
         style="fill:none;stroke:#ff7f0e;stroke-width:1.5;stroke-linecap:square"
         id="path360" />
    </g>
    <g
       id="patch_3"
       transform="translate(-121.65312,-83.495524)">
      <path
         d="M 172.8,624.78 V 84.24"
         style="fill:none;stroke:#000000;stroke-width:0.8;stroke-linecap:square;stroke-linejoin:miter"
         id="path363" />
    </g>
    <g
       id="patch_4"
       transform="translate(-121.65312,-83.495524)">
      <path
         d="M 1244.16,624.78 V 84.24"
         style="fill:none;stroke:#000000;stroke-width:0.8;stroke-linecap:square;stroke-linejoin:miter"
         id="path366" />
    </g>
    <g
       id="patch_5"
       transform="translate(-121.65312,-83.495524)">
      <path
         d="M 172.8,624.78 H 1244.16"
         style="fill:none;stroke:#000000;stroke-width:0.8;stroke-linecap:square;stroke-linejoin:miter"
         id="path369" />
    </g>
    <g
       id="patch_6"
       transform="translate(-121.65312,-83.495524)">
      <path
         d="M 172.8,84.24 H 1244.16"
         style="fill:none;stroke:#000000;stroke-width:0.8;stroke-linecap:square;stroke-linejoin:miter"
         id="path372" />
    </g>
    <path
       style="fill:none;stroke:#000000;stroke-width:1.87129;stroke-linecap:butt;stroke-linejoin:miter;stroke-miterlimit:4;stroke-dasharray:14.9703, 14.9703;stroke-dashoffset:0;stroke-opacity:1"
       d="M 401.41566,541.00248 400.49109,0.27612883 v 0 0"
       id="path1982" />
    <path
       style="fill:none;stroke:#000000;stroke-width:1.87129;stroke-linecap:butt;stroke-linejoin:miter;stroke-miterlimit:4;stroke-dasharray:14.9703, 14.9703;stroke-dashoffset:0;stroke-opacity:1"
       d="M 765.7697,540.72795 764.84513,0.00159983 v 0 0"
       id="path1982-1" />
  </g>
</svg>
