<?xml version="1.0" encoding="UTF-8" standalone="no"?>
<svg
   width="1084.6334pt"
   height="555.6806pt"
   viewBox="0 0 1084.6334 555.6806"
   version="1.1"
   id="svg255"
   sodipodi:docname="Variance_streaming.svg"
   inkscape:version="1.1.1 (3bf5ae0d25, 2021-09-20)"
   xmlns:inkscape="http://www.inkscape.org/namespaces/inkscape"
   xmlns:sodipodi="http://sodipodi.sourceforge.net/DTD/sodipodi-0.dtd"
   xmlns:xlink="http://www.w3.org/1999/xlink"
   xmlns="http://www.w3.org/2000/svg"
   xmlns:svg="http://www.w3.org/2000/svg"
   xmlns:rdf="http://www.w3.org/1999/02/22-rdf-syntax-ns#"
   xmlns:cc="http://creativecommons.org/ns#"
   xmlns:dc="http://purl.org/dc/elements/1.1/">
  <sodipodi:namedview
     id="namedview257"
     pagecolor="#ffffff"
     bordercolor="#666666"
     borderopacity="1.0"
     inkscape:pageshadow="2"
     inkscape:pageopacity="0.0"
     inkscape:pagecheckerboard="0"
     inkscape:document-units="pt"
     showgrid="false"
     inkscape:zoom="0.8034188"
     inkscape:cx="708.84574"
     inkscape:cy="355.97872"
     inkscape:window-width="3360"
     inkscape:window-height="1780"
     inkscape:window-x="3348"
     inkscape:window-y="-12"
     inkscape:window-maximized="1"
     inkscape:current-layer="svg255" />
  <metadata
     id="metadata2">
    <rdf:RDF>
      <cc:Work>
        <dc:type
           rdf:resource="http://purl.org/dc/dcmitype/StillImage" />
        <dc:date>2022-08-25T12:34:54.040690</dc:date>
        <dc:format>image/svg+xml</dc:format>
        <dc:creator>
          <cc:Agent>
            <dc:title>Matplotlib v3.5.1, https://matplotlib.org/</dc:title>
          </cc:Agent>
        </dc:creator>
      </cc:Work>
    </rdf:RDF>
  </metadata>
  <defs
     id="defs6">
    <style
       type="text/css"
       id="style4">*{stroke-linejoin: round; stroke-linecap: butt}</style>
  </defs>
  <g
     id="axes_1"
     transform="translate(-159.92656,-83.84)">
    <g
       id="patch_2">
      <path
         d="M 172.8,624.78 H 1244.16 V 84.24 H 172.8 Z"
         style="fill:#ffffff"
         id="path11" />
    </g>
    <g
       id="matplotlib.axis_1">
      <g
         id="xtick_1">
        <g
           id="line2d_1">
          <defs
             id="defs15">
            <path
               id="m058fa1c0fe"
               d="M 0,0 V 3.5"
               style="stroke:#000000;stroke-width:0.8" />
          </defs>
          <g
             id="g19">
            <use
               xlink:href="#m058fa1c0fe"
               x="221.49818"
               y="624.78003"
               style="stroke:#000000;stroke-width:0.8"
               id="use17"
               width="100%"
               height="100%" />
          </g>
        </g>
        <g
           id="text_1">
          <!-- 0 -->
          <g
             transform="matrix(0.1,0,0,-0.1,218.31693,639.37844)"
             id="g27">
            <defs
               id="defs23">
              <path
                 id="DejaVuSans-30"
                 d="m 2034,4250 q -487,0 -733,-480 -245,-479 -245,-1442 0,-959 245,-1439 246,-480 733,-480 491,0 736,480 246,480 246,1439 0,963 -246,1442 -245,480 -736,480 z m 0,500 q 785,0 1199,-621 414,-620 414,-1801 0,-1178 -414,-1799 -414,-620 -1199,-620 -784,0 -1198,620 -414,621 -414,1799 0,1181 414,1801 414,621 1198,621 z"
                 transform="scale(0.015625)" />
            </defs>
            <use
               xlink:href="#DejaVuSans-30"
               id="use25"
               x="0"
               y="0"
               width="100%"
               height="100%" />
          </g>
        </g>
      </g>
      <g
         id="xtick_2">
        <g
           id="line2d_2">
          <g
             id="g33">
            <use
               xlink:href="#m058fa1c0fe"
               x="343.85544"
               y="624.78003"
               style="stroke:#000000;stroke-width:0.8"
               id="use31"
               width="100%"
               height="100%" />
          </g>
        </g>
        <g
           id="text_2">
          <!-- 25 -->
          <g
             transform="matrix(0.1,0,0,-0.1,337.49292,639.37844)"
             id="g44">
            <defs
               id="defs38">
              <path
                 id="DejaVuSans-32"
                 d="M 1228,531 H 3431 V 0 H 469 v 531 q 359,372 979,998 621,627 780,809 303,340 423,576 121,236 121,464 0,372 -261,606 -261,235 -680,235 -297,0 -627,-103 -329,-103 -704,-313 v 638 q 381,153 712,231 332,78 607,78 725,0 1156,-363 431,-362 431,-968 0,-288 -108,-546 -107,-257 -392,-607 -78,-91 -497,-524 Q 1991,1309 1228,531 Z"
                 transform="scale(0.015625)" />
              <path
                 id="DejaVuSans-35"
                 d="M 691,4666 H 3169 V 4134 H 1269 V 2991 q 137,47 274,70 138,23 276,23 781,0 1237,-428 457,-428 457,-1159 Q 3513,744 3044,326 2575,-91 1722,-91 1428,-91 1123,-41 819,9 494,109 v 635 q 281,-153 581,-228 300,-75 634,-75 541,0 856,284 316,284 316,772 0,487 -316,771 -315,285 -856,285 -253,0 -505,-56 -251,-56 -513,-175 z"
                 transform="scale(0.015625)" />
            </defs>
            <use
               xlink:href="#DejaVuSans-32"
               id="use40"
               x="0"
               y="0"
               width="100%"
               height="100%" />
            <use
               xlink:href="#DejaVuSans-35"
               x="63.623047"
               id="use42"
               y="0"
               width="100%"
               height="100%" />
          </g>
        </g>
      </g>
      <g
         id="xtick_3">
        <g
           id="line2d_3">
          <g
             id="g50">
            <use
               xlink:href="#m058fa1c0fe"
               x="466.21268"
               y="624.78003"
               style="stroke:#000000;stroke-width:0.8"
               id="use48"
               width="100%"
               height="100%" />
          </g>
        </g>
        <g
           id="text_3">
          <!-- 50 -->
          <g
             transform="matrix(0.1,0,0,-0.1,459.85016,639.37844)"
             id="g57">
            <use
               xlink:href="#DejaVuSans-35"
               id="use53"
               x="0"
               y="0"
               width="100%"
               height="100%" />
            <use
               xlink:href="#DejaVuSans-30"
               x="63.623047"
               id="use55"
               y="0"
               width="100%"
               height="100%" />
          </g>
        </g>
      </g>
      <g
         id="xtick_4">
        <g
           id="line2d_4">
          <g
             id="g63">
            <use
               xlink:href="#m058fa1c0fe"
               x="588.56989"
               y="624.78003"
               style="stroke:#000000;stroke-width:0.8"
               id="use61"
               width="100%"
               height="100%" />
          </g>
        </g>
        <g
           id="text_4">
          <!-- 75 -->
          <g
             transform="matrix(0.1,0,0,-0.1,582.2074,639.37844)"
             id="g73">
            <defs
               id="defs67">
              <path
                 id="DejaVuSans-37"
                 d="M 525,4666 H 3525 V 4397 L 1831,0 H 1172 L 2766,4134 H 525 Z"
                 transform="scale(0.015625)" />
            </defs>
            <use
               xlink:href="#DejaVuSans-37"
               id="use69"
               x="0"
               y="0"
               width="100%"
               height="100%" />
            <use
               xlink:href="#DejaVuSans-35"
               x="63.623047"
               id="use71"
               y="0"
               width="100%"
               height="100%" />
          </g>
        </g>
      </g>
      <g
         id="xtick_5">
        <g
           id="line2d_5">
          <g
             id="g79">
            <use
               xlink:href="#m058fa1c0fe"
               x="710.92712"
               y="624.78003"
               style="stroke:#000000;stroke-width:0.8"
               id="use77"
               width="100%"
               height="100%" />
          </g>
        </g>
        <g
           id="text_5">
          <!-- 100 -->
          <g
             transform="matrix(0.1,0,0,-0.1,701.38339,639.37844)"
             id="g91">
            <defs
               id="defs83">
              <path
                 id="DejaVuSans-31"
                 d="M 794,531 H 1825 V 4091 L 703,3866 v 575 l 1116,225 h 631 V 531 H 3481 V 0 H 794 Z"
                 transform="scale(0.015625)" />
            </defs>
            <use
               xlink:href="#DejaVuSans-31"
               id="use85"
               x="0"
               y="0"
               width="100%"
               height="100%" />
            <use
               xlink:href="#DejaVuSans-30"
               x="63.623047"
               id="use87"
               y="0"
               width="100%"
               height="100%" />
            <use
               xlink:href="#DejaVuSans-30"
               x="127.24609"
               id="use89"
               y="0"
               width="100%"
               height="100%" />
          </g>
        </g>
      </g>
      <g
         id="xtick_6">
        <g
           id="line2d_6">
          <g
             id="g97">
            <use
               xlink:href="#m058fa1c0fe"
               x="833.28436"
               y="624.78003"
               style="stroke:#000000;stroke-width:0.8"
               id="use95"
               width="100%"
               height="100%" />
          </g>
        </g>
        <g
           id="text_6">
          <!-- 125 -->
          <g
             transform="matrix(0.1,0,0,-0.1,823.74064,639.37844)"
             id="g106">
            <use
               xlink:href="#DejaVuSans-31"
               id="use100"
               x="0"
               y="0"
               width="100%"
               height="100%" />
            <use
               xlink:href="#DejaVuSans-32"
               x="63.623047"
               id="use102"
               y="0"
               width="100%"
               height="100%" />
            <use
               xlink:href="#DejaVuSans-35"
               x="127.24609"
               id="use104"
               y="0"
               width="100%"
               height="100%" />
          </g>
        </g>
      </g>
      <g
         id="xtick_7">
        <g
           id="line2d_7">
          <g
             id="g112">
            <use
               xlink:href="#m058fa1c0fe"
               x="955.6416"
               y="624.78003"
               style="stroke:#000000;stroke-width:0.8"
               id="use110"
               width="100%"
               height="100%" />
          </g>
        </g>
        <g
           id="text_7">
          <!-- 150 -->
          <g
             transform="matrix(0.1,0,0,-0.1,946.09788,639.37844)"
             id="g121">
            <use
               xlink:href="#DejaVuSans-31"
               id="use115"
               x="0"
               y="0"
               width="100%"
               height="100%" />
            <use
               xlink:href="#DejaVuSans-35"
               x="63.623047"
               id="use117"
               y="0"
               width="100%"
               height="100%" />
            <use
               xlink:href="#DejaVuSans-30"
               x="127.24609"
               id="use119"
               y="0"
               width="100%"
               height="100%" />
          </g>
        </g>
      </g>
      <g
         id="xtick_8">
        <g
           id="line2d_8">
          <g
             id="g127">
            <use
               xlink:href="#m058fa1c0fe"
               x="1077.9989"
               y="624.78003"
               style="stroke:#000000;stroke-width:0.8"
               id="use125"
               width="100%"
               height="100%" />
          </g>
        </g>
        <g
           id="text_8">
          <!-- 175 -->
          <g
             transform="matrix(0.1,0,0,-0.1,1068.4551,639.37844)"
             id="g136">
            <use
               xlink:href="#DejaVuSans-31"
               id="use130"
               x="0"
               y="0"
               width="100%"
               height="100%" />
            <use
               xlink:href="#DejaVuSans-37"
               x="63.623047"
               id="use132"
               y="0"
               width="100%"
               height="100%" />
            <use
               xlink:href="#DejaVuSans-35"
               x="127.24609"
               id="use134"
               y="0"
               width="100%"
               height="100%" />
          </g>
        </g>
      </g>
      <g
         id="xtick_9">
        <g
           id="line2d_9">
          <g
             id="g142">
            <use
               xlink:href="#m058fa1c0fe"
               x="1200.3561"
               y="624.78003"
               style="stroke:#000000;stroke-width:0.8"
               id="use140"
               width="100%"
               height="100%" />
          </g>
        </g>
        <g
           id="text_9">
          <!-- 200 -->
          <g
             transform="matrix(0.1,0,0,-0.1,1190.8124,639.37844)"
             id="g151">
            <use
               xlink:href="#DejaVuSans-32"
               id="use145"
               x="0"
               y="0"
               width="100%"
               height="100%" />
            <use
               xlink:href="#DejaVuSans-30"
               x="63.623047"
               id="use147"
               y="0"
               width="100%"
               height="100%" />
            <use
               xlink:href="#DejaVuSans-30"
               x="127.24609"
               id="use149"
               y="0"
               width="100%"
               height="100%" />
          </g>
        </g>
      </g>
    </g>
    <g
       id="matplotlib.axis_2">
      <g
         id="ytick_1">
        <g
           id="line2d_10">
          <defs
             id="defs157">
            <path
               id="m9499cdb1bc"
               d="M 0,0 H -3.5"
               style="stroke:#000000;stroke-width:0.8" />
          </defs>
          <g
             id="g161">
            <use
               xlink:href="#m9499cdb1bc"
               x="172.8"
               y="600.21002"
               style="stroke:#000000;stroke-width:0.8"
               id="use159"
               width="100%"
               height="100%" />
          </g>
        </g>
        <g
           id="text_10">
          <!-- 0 -->
          <g
             transform="matrix(0.1,0,0,-0.1,159.4375,604.00922)"
             id="g166">
            <use
               xlink:href="#DejaVuSans-30"
               id="use164"
               x="0"
               y="0"
               width="100%"
               height="100%" />
          </g>
        </g>
      </g>
      <g
         id="ytick_2">
        <g
           id="line2d_11">
          <g
             id="g172">
            <use
               xlink:href="#m9499cdb1bc"
               x="172.8"
               y="491.01001"
               style="stroke:#000000;stroke-width:0.8"
               id="use170"
               width="100%"
               height="100%" />
          </g>
        </g>
        <g
           id="text_11">
          <!-- 2 -->
          <g
             transform="matrix(0.1,0,0,-0.1,159.4375,494.80922)"
             id="g177">
            <use
               xlink:href="#DejaVuSans-32"
               id="use175"
               x="0"
               y="0"
               width="100%"
               height="100%" />
          </g>
        </g>
      </g>
      <g
         id="ytick_3">
        <g
           id="line2d_12">
          <g
             id="g183">
            <use
               xlink:href="#m9499cdb1bc"
               x="172.8"
               y="381.81"
               style="stroke:#000000;stroke-width:0.8"
               id="use181"
               width="100%"
               height="100%" />
          </g>
        </g>
        <g
           id="text_12">
          <!-- 4 -->
          <g
             transform="matrix(0.1,0,0,-0.1,159.4375,385.60922)"
             id="g191">
            <defs
               id="defs187">
              <path
                 id="DejaVuSans-34"
                 d="M 2419,4116 825,1625 h 1594 z m -166,550 h 794 V 1625 h 666 V 1100 H 3047 V 0 H 2419 V 1100 H 313 v 609 z"
                 transform="scale(0.015625)" />
            </defs>
            <use
               xlink:href="#DejaVuSans-34"
               id="use189"
               x="0"
               y="0"
               width="100%"
               height="100%" />
          </g>
        </g>
      </g>
      <g
         id="ytick_4">
        <g
           id="line2d_13">
          <g
             id="g197">
            <use
               xlink:href="#m9499cdb1bc"
               x="172.8"
               y="272.60999"
               style="stroke:#000000;stroke-width:0.8"
               id="use195"
               width="100%"
               height="100%" />
          </g>
        </g>
        <g
           id="text_13">
          <!-- 6 -->
          <g
             transform="matrix(0.1,0,0,-0.1,159.4375,276.40922)"
             id="g205">
            <defs
               id="defs201">
              <path
                 id="DejaVuSans-36"
                 d="m 2113,2584 q -425,0 -674,-291 -248,-290 -248,-796 0,-503 248,-796 249,-292 674,-292 425,0 673,292 248,293 248,796 0,506 -248,796 -248,291 -673,291 z m 1253,1979 v -575 q -238,112 -480,171 -242,60 -480,60 -625,0 -955,-422 -329,-422 -376,-1275 184,272 462,417 279,145 613,145 703,0 1111,-427 408,-426 408,-1160 0,-719 -425,-1154 -425,-434 -1131,-434 -810,0 -1238,620 -428,621 -428,1799 0,1106 525,1764 525,658 1409,658 238,0 480,-47 242,-47 505,-140 z"
                 transform="scale(0.015625)" />
            </defs>
            <use
               xlink:href="#DejaVuSans-36"
               id="use203"
               x="0"
               y="0"
               width="100%"
               height="100%" />
          </g>
        </g>
      </g>
      <g
         id="ytick_5">
        <g
           id="line2d_14">
          <g
             id="g211">
            <use
               xlink:href="#m9499cdb1bc"
               x="172.8"
               y="163.41"
               style="stroke:#000000;stroke-width:0.8"
               id="use209"
               width="100%"
               height="100%" />
          </g>
        </g>
        <g
           id="text_14">
          <!-- 8 -->
          <g
             transform="matrix(0.1,0,0,-0.1,159.4375,167.20922)"
             id="g219">
            <defs
               id="defs215">
              <path
                 id="DejaVuSans-38"
                 d="m 2034,2216 q -450,0 -708,-241 -257,-241 -257,-662 0,-422 257,-663 258,-241 708,-241 450,0 709,242 260,243 260,662 0,421 -258,662 -257,241 -711,241 z m -631,268 q -406,100 -633,378 -226,279 -226,679 0,559 398,884 399,325 1092,325 697,0 1094,-325 397,-325 397,-884 0,-400 -227,-679 -226,-278 -629,-378 456,-106 710,-416 255,-309 255,-755 Q 3634,634 3220,271 2806,-91 2034,-91 1263,-91 848,271 434,634 434,1313 q 0,446 256,755 257,310 713,416 z m -231,997 q 0,-362 226,-565 227,-203 636,-203 407,0 636,203 230,203 230,565 0,363 -230,566 -229,203 -636,203 -409,0 -636,-203 -226,-203 -226,-566 z"
                 transform="scale(0.015625)" />
            </defs>
            <use
               xlink:href="#DejaVuSans-38"
               id="use217"
               x="0"
               y="0"
               width="100%"
               height="100%" />
          </g>
        </g>
      </g>
    </g>
    <g
       id="line2d_15">
      <path
         d="m 221.49818,545.61 4.89429,-109.2 4.89429,36.4 4.89429,18.2 4.89429,-32.76 4.89429,-49.14 4.89429,-11.7 4.89429,25.35 4.89429,-10.61667 4.89429,-8.49333 4.89429,-26.80364 4.89429,-17.78636 4.89429,-6.65 4.89429,17.7 4.89429,-10.14 4.89429,8.19 4.89429,10.43823 4.89429,-8.92156 4.89428,6.38596 4.89429,8.47737 4.89429,-5.33 4.89429,7.56364 4.89429,-0.21581 4.89429,8.90217 4.89429,-0.546 4.89429,-6.804 4.89429,-8.32222 4.89429,7.87222 4.89429,3.56379 4.89429,5.14621 4.89429,-5.75355 4.89429,3.1373 4.89429,4.6017 4.89429,-8.51604 4.89429,-0.22941 4.89429,1.3 4.89429,-6.14865 4.89429,2.79602 4.89429,-7.14737 4.89429,2.765 4.89429,-5.36012 9.78858,5.26489 4.89429,4.93477 4.89429,-0.13787 4.89428,-6.06667 4.8943,-3.48511 4.89428,-2.20239 4.89429,3.45893 4.89429,-3.23143 4.89429,-2.03412 4.89429,-3.00588 9.78858,4.43333 4.89429,-3.8606 9.78858,0.34832 4.89429,-3.60036 4.89429,1.1488 4.89429,2.02051 9.78858,-4.96097 4.89429,2.83764 4.89429,-2.3698 9.78858,3.74858 4.89429,1.79037 4.89429,-3.07994 4.89429,-3.78197 4.89429,1.00609 4.89429,1.74676 4.89429,-2.85176 4.89428,1.71404 4.8943,0.19204 4.89428,-1.99708 4.89429,2.366 4.89429,0.17727 4.89429,-0.52727 4.89429,0.17721 4.89429,0.85529 4.89429,2.18231 4.89429,-2.53188 4.89429,0.16044 4.89429,2.75663 4.89429,0.76471 4.89429,-2.4275 4.89429,-1.11652 4.89429,2.63158 4.89429,-0.49497 4.89429,-2.30397 4.89429,2.54667 9.78858,-3.29032 4.89429,-2.17351 4.89429,2.47015 9.78858,-1.96715 4.89429,1.27512 4.89429,-2.61126 4.89429,-0.92103 4.89428,0.1784 4.89429,1.24548 4.89429,2.2815 4.89429,1.71262 4.89429,-1.96 4.89429,0.13736 4.89429,-2.41661 4.89429,1.67258 4.89429,1.14098 4.89429,-0.86522 4.89429,1.11794 4.89429,0.12297 4.89429,-1.81195 4.89429,-0.82226 4.89429,-0.33318 4.89429,1.08463 4.89429,-1.26724 4.89429,1.99322 4.89429,-2.16969 4.89429,-1.22353 4.89429,0.60165 4.89429,-1.64591 4.89429,0.15645 4.89429,-0.72671 4.89429,1.03212 4.89429,-0.7176 4.89428,0.58346 4.89429,-1.98502 4.89429,1.00854 4.89429,0.15302 4.89429,1.40107 4.89429,0.13893 4.89429,-0.27368 4.89429,-1.49199 9.78858,3.50538 4.89429,-1.87256 4.89429,1.31981 9.78858,-2.09696 4.89429,0.52277 9.78858,0.25996 4.89429,-1.76856 4.89429,-0.23796 4.89429,0.13927 4.89429,-0.97691 4.89429,-0.59479 4.89429,0.87897 4.89429,-0.22475 4.89429,-0.58336 4.89429,-0.21648 4.89429,0.50007 4.89428,-0.2155 4.8943,1.1963 4.89428,0.48097 4.89429,-1.61178 4.89429,-0.55468 4.89429,-0.2043 4.89429,0.13951 4.89427,-0.54049 4.8943,-1.54493 4.8943,-1.191 4.8943,-1.5094 4.8943,0.82525 4.8943,-1.4871 4.8943,0.16545 9.7885,0.97116 9.7886,2.22564 4.8943,0.14109 4.8943,-1.12298 4.8943,1.08649 4.8943,-0.79793 4.8943,0.14182 4.8943,1.06564 4.8942,0.13344 4.8943,-0.47811 4.8943,-1.38279 4.8943,1.04575 4.8943,1.33425 4.8943,0.12623 4.8943,1.31181 4.8943,-1.35858 4.8943,-0.46333 9.7885,1.41153 4.8943,-0.46099 4.8943,-1.03088 4.8943,1.26683 4.8943,-1.02137 4.8943,0.40372 4.8943,-1.00765 4.8943,1.24268 4.8943,0.67286 4.8942,0.38887 4.8943,-1.26961 4.8943,0.93813 4.8943,-0.16325 v 0"
         clip-path="url(#p0773b58537)"
         style="fill:none;stroke:#1f77b4;stroke-width:1.5;stroke-linecap:square"
         id="path224" />
    </g>
    <g
       id="line2d_16">
      <path
         d="M 172.8,354.51 H 1244.16"
         clip-path="url(#p0773b58537)"
         style="fill:none;stroke:#0000ff;stroke-width:1.5;stroke-linecap:square"
         id="path227" />
    </g>
    <g
       id="line2d_17">
      <path
         d="m 221.49818,600.21 4.89429,-218.4 4.89429,24.26667 4.89429,30.33333 4.89429,-45.864 4.89429,-186.186 4.89429,41.50714 4.89429,-38.09464 4.89429,27.08935 4.89429,24.64415 4.89429,-100.6084 4.89429,-26.95843 4.89429,26.3016 4.89429,-43.02363 4.89429,5.96886 4.89429,11.5115 4.89429,-4.42798 4.89429,1.43678 4.89428,11.31921 4.89429,-2.04901 4.89429,11.55731 4.89429,-1.56348 4.89429,19.60035 4.89429,-15.39818 4.89429,17.75046 4.89429,-4.68604 4.89429,-16.90758 4.89429,-14.54255 4.89429,9.53593 4.89429,1.12995 4.89429,-3.51905 4.89429,8.73282 4.89429,1.21188 4.89429,-30.64635 4.89429,13.65232 4.89429,11.84238 4.89429,-12.67065 4.89429,6.96949 4.89429,-23.77961 4.89429,6.61323 4.89429,-9.42998 9.78858,12.18712 4.89429,-8.41484 4.89429,10.69598 4.89428,-20.08741 4.8943,0.22245 4.89428,6.0575 4.89429,-0.61756 4.89429,0.34361 4.89429,5.72849 4.89429,0.78474 9.78858,8.37707 4.89429,-6.18589 4.89429,8.48066 4.89429,8.18418 4.89429,-5.60093 4.89429,6.49003 4.89429,3.24082 4.89429,0.48886 4.89429,0.69478 4.89429,-1.92585 4.89429,0.65506 14.68287,8.42983 4.89429,-5.05871 4.89429,-11.25404 4.89429,5.34747 4.89429,2.54623 4.89429,-4.24234 4.89428,2.43009 4.8943,6.13696 4.89428,0.61652 4.89429,-1.7549 4.89429,5.83658 4.89429,5.33803 4.89429,5.54514 4.89429,4.3924 4.89429,-1.64873 4.89429,-4.22561 4.89429,5.23299 4.89429,-6.40498 4.89429,4.26175 4.89429,-4.12185 4.89429,3.0776 4.89429,-6.08582 4.89429,4.56679 4.89429,-3.7969 4.89429,-5.84626 9.78858,0.58382 4.89429,-3.30107 4.89429,-5.77429 9.78858,6.0182 4.89429,1.69451 4.89429,-7.71899 4.89429,3.0135 4.89428,4.41843 4.89429,1.52 4.89429,-5.39192 4.89429,-1.19076 4.89429,-3.00502 4.89429,4.26369 4.89429,-7.11781 4.89429,-1.23559 4.89429,1.6441 4.89429,2.67137 4.89429,1.58637 4.89429,4.0227 4.89429,-2.7527 4.89429,2.57189 4.89429,3.68252 4.89429,1.37097 4.89429,0.39238 4.89429,-4.74479 4.89429,-6.39702 4.89429,0.53592 4.89429,2.96726 4.89429,-2.29587 4.89429,3.6415 4.89429,2.44732 4.89429,1.16907 4.89429,2.37167 4.89428,2.71834 4.89429,-5.70989 4.89429,1.08829 4.89429,3.38241 4.89429,-1.28812 4.89429,3.32347 4.89429,3.13837 4.89429,-2.1511 4.89429,-4.38828 4.89429,-4.21205 4.89429,-5.45591 4.89429,-1.07677 9.78858,0.95212 4.89429,2.52396 9.78858,6.23662 4.89429,-5.0952 9.78858,5.97848 4.89429,0.47554 4.89429,2.05133 4.89429,0.87569 4.89429,2.80639 4.89429,1.97122 4.89429,2.74446 4.89429,2.14115 4.89428,2.67487 4.8943,-1.26691 4.89428,2.10332 4.89429,-4.69337 4.89429,1.85682 9.78858,5.21451 4.89427,1.79042 4.8943,-4.41891 4.8943,-1.57857 4.8943,-4.1778 4.8943,0.5875 4.8943,-4.06924 4.8943,2.53923 9.7885,3.7104 9.7886,-2.61698 4.8943,2.46276 4.8943,-1.47634 4.8943,-1.24985 4.8943,0.45429 4.8943,2.40216 4.8943,-1.22139 4.8942,2.37455 4.8943,1.66022 4.8943,-3.88583 4.8943,-1.21409 4.8943,-3.51683 4.8943,2.33774 4.8943,-3.40254 4.8943,-3.84935 4.8943,1.65134 9.7885,1.29557 4.8943,1.59363 4.8943,-1.37386 4.8943,-3.28479 4.8943,-1.34427 4.8943,1.72685 4.8943,-1.30985 4.8943,-3.21263 4.8943,0.66216 4.8942,1.72131 4.8943,-3.57179 4.8943,-0.94084 4.8943,2.147 v 0"
         clip-path="url(#p0773b58537)"
         style="fill:none;stroke:#ff7f0e;stroke-width:1.5;stroke-linecap:square"
         id="path230" />
    </g>
    <g
       id="line2d_18">
      <path
         d="M 172.8,149.76 H 1244.16"
         clip-path="url(#p0773b58537)"
         style="fill:none;stroke:#ffa500;stroke-width:1.5;stroke-linecap:square"
         id="path233" />
    </g>
    <g
       id="patch_3">
      <path
         d="M 172.8,624.78 V 84.24"
         style="fill:none;stroke:#000000;stroke-width:0.8;stroke-linecap:square;stroke-linejoin:miter"
         id="path236" />
    </g>
    <g
       id="patch_4">
      <path
         d="M 1244.16,624.78 V 84.24"
         style="fill:none;stroke:#000000;stroke-width:0.8;stroke-linecap:square;stroke-linejoin:miter"
         id="path239" />
    </g>
    <g
       id="patch_5">
      <path
         d="M 172.8,624.78 H 1244.16"
         style="fill:none;stroke:#000000;stroke-width:0.8;stroke-linecap:square;stroke-linejoin:miter"
         id="path242" />
    </g>
    <g
       id="patch_6">
      <path
         d="M 172.8,84.24 H 1244.16"
         style="fill:none;stroke:#000000;stroke-width:0.8;stroke-linecap:square;stroke-linejoin:miter"
         id="path245" />
    </g>
  </g>
  <defs
     id="defs253">
    <clipPath
       id="p0773b58537">
      <rect
         x="172.8"
         y="84.239998"
         width="1071.36"
         height="540.53998"
         id="rect250" />
    </clipPath>
  </defs>
</svg>
